<?xml version="1.0" encoding="us-ascii" standalone="no"?><svg xmlns="http://www.w3.org/2000/svg" xmlns:xlink="http://www.w3.org/1999/xlink" contentStyleType="text/css" height="560px" preserveAspectRatio="none" style="width:1643px;height:560px;background:#FFFFFF;" version="1.1" viewBox="0 0 1643 560" width="1643px" zoomAndPan="magnify"><defs/><g><!--entity OS--><g id="elem_OS"><rect fill="#FFFFFF" height="32.2969" rx="2.5" ry="2.5" style="stroke:#000000;stroke-width:2.0;" width="139" x="713.5" y="14.5"/><rect fill="#FFFFFF" height="32.2969" rx="2.5" ry="2.5" style="stroke:#000000;stroke-width:2.0;" width="139" x="709.5" y="10.5"/><text fill="#000000" font-family="sans-serif" font-size="14" lengthAdjust="spacing" textLength="123" x="717.5" y="31.4951">Operating System</text></g><!--entity CountPixels--><g id="elem_CountPixels"><rect fill="#F1F1F1" height="36.2969" rx="2.5" ry="2.5" style="stroke:#000000;stroke-width:2.0;" width="105" x="728.5" y="170.15"/><text fill="#000000" font-family="sans-serif" font-size="14" lengthAdjust="spacing" textLength="85" x="738.5" y="193.1451">Count Pixels</text></g><!--entity CountSplit--><g id="elem_CountSplit"><rect fill="#F1F1F1" height="36.2969" rx="2.5" ry="2.5" style="stroke:#000000;stroke-width:2.0;" width="214" x="1073" y="10.5"/><text fill="#000000" font-family="sans-serif" font-size="14" lengthAdjust="spacing" textLength="194" x="1083" y="33.4951">Count Pixels for Split Images</text></g><!--entity AddCount--><g id="elem_AddCount"><rect fill="#F1F1F1" height="36.2969" rx="2.5" ry="2.5" style="stroke:#000000;stroke-width:2.0;" width="202" x="363" y="10.5"/><text fill="#000000" font-family="sans-serif" font-size="14" lengthAdjust="spacing" textLength="182" x="373" y="33.4951">Add Count for Two Images</text></g><!--entity CalcPercentage--><g id="elem_CalcPercentage"><rect fill="#F1F1F1" height="36.2969" rx="2.5" ry="2.5" style="stroke:#000000;stroke-width:2.0;" width="167" x="1340.5" y="336.15"/><text fill="#000000" font-family="sans-serif" font-size="14" lengthAdjust="spacing" textLength="147" x="1350.5" y="359.1451">Calculate Percentage</text></g><!--entity MeasureIncrease--><g id="elem_MeasureIncrease"><rect fill="#F1F1F1" height="36.2969" rx="2.5" ry="2.5" style="stroke:#000000;stroke-width:2.0;" width="143" x="1009.5" y="170.15"/><text fill="#000000" font-family="sans-serif" font-size="14" lengthAdjust="spacing" textLength="123" x="1019.5" y="193.1451">Measure Increase</text></g><!--entity ImageFiles--><g id="elem_ImageFiles"><path d="M1321.5,16 C1321.5,6 1370,6 1370,6 C1370,6 1418.5,6 1418.5,16 L1418.5,41.2969 C1418.5,51.2969 1370,51.2969 1370,51.2969 C1370,51.2969 1321.5,51.2969 1321.5,41.2969 L1321.5,16 " fill="#F1F1F1" style="stroke:#181818;stroke-width:0.5;"/><path d="M1321.5,16 C1321.5,26 1370,26 1370,26 C1370,26 1418.5,26 1418.5,16 " fill="none" style="stroke:#181818;stroke-width:0.5;"/><text fill="#000000" font-family="sans-serif" font-size="14" lengthAdjust="spacing" textLength="77" x="1331.5" y="42.9951">Image Files</text></g><!--entity PreSplitData--><g id="elem_PreSplitData"><path d="M1278.5,175.65 C1278.5,165.65 1358,165.65 1358,165.65 C1358,165.65 1437.5,165.65 1437.5,175.65 L1437.5,200.9469 C1437.5,210.9469 1358,210.9469 1358,210.9469 C1358,210.9469 1278.5,210.9469 1278.5,200.9469 L1278.5,175.65 " fill="#F1F1F1" style="stroke:#181818;stroke-width:0.5;"/><path d="M1278.5,175.65 C1278.5,185.65 1358,185.65 1358,185.65 C1358,185.65 1437.5,185.65 1437.5,175.65 " fill="none" style="stroke:#181818;stroke-width:0.5;"/><text fill="#000000" font-family="sans-serif" font-size="14" lengthAdjust="spacing" textLength="139" x="1288.5" y="202.6451">Pre-Split Image Data</text></g><!--entity PostSplitData--><g id="elem_PostSplitData"><path d="M1166.5,492.65 C1166.5,482.65 1250,482.65 1250,482.65 C1250,482.65 1333.5,482.65 1333.5,492.65 L1333.5,517.9469 C1333.5,527.9469 1250,527.9469 1250,527.9469 C1250,527.9469 1166.5,527.9469 1166.5,517.9469 L1166.5,492.65 " fill="#F1F1F1" style="stroke:#181818;stroke-width:0.5;"/><path d="M1166.5,492.65 C1166.5,502.65 1250,502.65 1250,502.65 C1250,502.65 1333.5,502.65 1333.5,492.65 " fill="none" style="stroke:#181818;stroke-width:0.5;"/><text fill="#000000" font-family="sans-serif" font-size="14" lengthAdjust="spacing" textLength="147" x="1176.5" y="519.6451">Post-Split Image Data</text></g><!--entity Display\nPre-Split Percentages--><g id="elem_Display\nPre-Split Percentages"><ellipse cx="1474" cy="505.3" fill="#F1F1F1" rx="8" ry="8" style="stroke:#181818;stroke-width:0.5;"/><text fill="#000000" font-family="sans-serif" font-size="14" lengthAdjust="spacing" textLength="49" x="1449.5" y="535.2951">Display</text><text fill="#000000" font-family="sans-serif" font-size="14" lengthAdjust="spacing" textLength="149" x="1399.5" y="551.592">Pre-Split Percentages</text></g><!--entity Display\nPost-Split Percentages--><g id="elem_Display\nPost-Split Percentages"><ellipse cx="1558" cy="188.3" fill="#F1F1F1" rx="8" ry="8" style="stroke:#181818;stroke-width:0.5;"/><text fill="#000000" font-family="sans-serif" font-size="14" lengthAdjust="spacing" textLength="49" x="1533.5" y="218.2951">Display</text><text fill="#000000" font-family="sans-serif" font-size="14" lengthAdjust="spacing" textLength="157" x="1479.5" y="234.592">Post-Split Percentages</text></g><!--entity Display Increase in Data Points--><g id="elem_Display Increase in Data Points"><ellipse cx="1060" cy="354.3" fill="#F1F1F1" rx="8" ry="8" style="stroke:#181818;stroke-width:0.5;"/><text fill="#000000" font-family="sans-serif" font-size="14" lengthAdjust="spacing" textLength="211" x="954.5" y="384.2951">Display Increase in Data Points</text></g><!--entity Display Total Data Points--><g id="elem_Display Total Data Points"><ellipse cx="91" cy="28.65" fill="#F1F1F1" rx="8" ry="8" style="stroke:#181818;stroke-width:0.5;"/><text fill="#000000" font-family="sans-serif" font-size="14" lengthAdjust="spacing" textLength="170" x="6" y="58.6451">Display Total Data Points</text></g><!--link OS to CountPixels--><g id="link_OS_CountPixels"><path d="M781,47.13 C781,77.43 781,133.39 781,163.75 " fill="none" id="OS-to-CountPixels" style="stroke:#181818;stroke-width:1.0;"/><polygon fill="#181818" points="781,169.75,785,160.75,781,164.75,777,160.75,781,169.75" style="stroke:#181818;stroke-width:1.0;"/><text fill="#000000" font-family="sans-serif" font-size="13" lengthAdjust="spacing" textLength="73" x="782" y="101.8669">Image Path</text></g><!--link CountPixels to PreSplitData--><g id="link_CountPixels_PreSplitData"><path d="M815.17,169.72 C887.29,132.92 1060.18,57.58 1202.5,96.47 C1251.19,109.77 1295.3678,139.0233 1324.9978,161.6033 " fill="none" id="CountPixels-to-PreSplitData" style="stroke:#181818;stroke-width:1.0;"/><polygon fill="#181818" points="1329.77,165.24,1325.0362,156.6034,1325.7931,162.2094,1320.1872,162.9664,1329.77,165.24" style="stroke:#181818;stroke-width:1.0;"/><text fill="#000000" font-family="sans-serif" font-size="13" lengthAdjust="spacing" textLength="82" x="1108" y="94.3669">Color Counts</text><text fill="#000000" font-family="sans-serif" font-size="13" lengthAdjust="spacing" textLength="105" x="1096.5" y="109.4997">&amp; Classifications</text></g><!--link PreSplitData to CalcPercentage--><g id="link_PreSplitData_CalcPercentage"><path d="M1357.19,211.04 C1357.19,233.22 1359.51,268.15 1372,295.3 C1379.18,310.9 1387.6754,321.1723 1398.8054,331.7223 " fill="none" id="PreSplitData-to-CalcPercentage" style="stroke:#181818;stroke-width:1.0;"/><polygon fill="#181818" points="1403.16,335.85,1399.3799,326.7555,1399.5312,332.4103,1393.8763,332.5616,1403.16,335.85" style="stroke:#181818;stroke-width:1.0;"/><text fill="#000000" font-family="sans-serif" font-size="13" lengthAdjust="spacing" textLength="141" x="1373" y="283.8669">Pre-Split Class Counts</text></g><!--link CalcPercentage to Display\nPre-Split Percentages--><g id="link_CalcPercentage_Display\nPre-Split Percentages"><path d="M1429.83,372.68 C1440.7,405.08 1461.7523,467.7914 1469.4823,490.8414 " fill="none" id="CalcPercentage-to-Display\nPre-Split Percentages" style="stroke:#181818;stroke-width:1.0;"/><polygon fill="#181818" points="1471.39,496.53,1472.3208,486.7252,1469.8002,491.7895,1464.736,489.2689,1471.39,496.53" style="stroke:#181818;stroke-width:1.0;"/><text fill="#000000" font-family="sans-serif" font-size="13" lengthAdjust="spacing" textLength="80" x="1450" y="426.3669">Percentages</text></g><!--link OS to CountSplit--><g id="link_OS_CountSplit"><path d="M852.79,28.65 C914.05,28.65 997,28.65 1066.71,28.65 " fill="none" id="OS-to-CountSplit" style="stroke:#181818;stroke-width:1.0;"/><polygon fill="#181818" points="1072.71,28.65,1063.71,24.65,1067.71,28.65,1063.71,32.65,1072.71,28.65" style="stroke:#181818;stroke-width:1.0;"/><text fill="#000000" font-family="sans-serif" font-size="13" lengthAdjust="spacing" textLength="184" x="870.75" y="21.7169">Image Paths for Split Images</text></g><!--link CountSplit to PostSplitData--><g id="link_CountSplit_PostSplitData"><path d="M1189.94,47.27 C1194.98,57 1200.71,69.49 1204,81.3 C1245.53,230.38 1249.8692,412.75 1250.0892,476.26 " fill="none" id="CountSplit-to-PostSplitData" style="stroke:#181818;stroke-width:1.0;"/><polygon fill="#181818" points="1250.11,482.26,1254.0788,473.2462,1250.0927,477.26,1246.0788,473.2739,1250.11,482.26" style="stroke:#181818;stroke-width:1.0;"/><text fill="#000000" font-family="sans-serif" font-size="13" lengthAdjust="spacing" textLength="82" x="1253.5" y="276.3669">Color Counts</text><text fill="#000000" font-family="sans-serif" font-size="13" lengthAdjust="spacing" textLength="105" x="1242" y="291.4997">&amp; Classifications</text></g><!--reverse link CalcPercentage to PostSplitData--><g id="link_CalcPercentage_PostSplitData"><path d="M1347.7045,374.9266 C1323.8445,383.7766 1304.27,394.64 1286,413.3 C1267.46,432.24 1258.15,461.89 1253.7,482.16 " fill="none" id="CalcPercentage-backto-PostSplitData" style="stroke:#181818;stroke-width:1.0;"/><polygon fill="#181818" points="1353.33,372.84,1343.5007,372.2195,1348.6421,374.5788,1346.2828,379.7202,1353.33,372.84" style="stroke:#181818;stroke-width:1.0;"/><text fill="#000000" font-family="sans-serif" font-size="13" lengthAdjust="spacing" textLength="148" x="1287" y="426.3669">Post-Split Class Counts</text></g><!--reverse link Display\nPost-Split Percentages to CalcPercentage--><g id="link_Display\nPost-Split Percentages_CalcPercentage"><path d="M1556.0009,203.0176 C1553.0509,221.8376 1544.26,264.54 1519,295.3 C1504.77,312.62 1483.93,326.15 1465.4,335.78 " fill="none" id="Display\nPost-Split Percentages-backto-CalcPercentage" style="stroke:#181818;stroke-width:1.0;"/><polygon fill="#181818" points="1556.93,197.09,1551.5845,205.362,1556.1557,202.0297,1559.488,206.6009,1556.93,197.09" style="stroke:#181818;stroke-width:1.0;"/><text fill="#000000" font-family="sans-serif" font-size="13" lengthAdjust="spacing" textLength="80" x="1538" y="283.8669">Percentages</text></g><!--link CountPixels to MeasureIncrease--><g id="link_CountPixels_MeasureIncrease"><path d="M833.94,188.3 C882.64,188.3 949.25,188.3 1003.17,188.3 " fill="none" id="CountPixels-to-MeasureIncrease" style="stroke:#181818;stroke-width:1.0;"/><polygon fill="#181818" points="1009.17,188.3,1000.17,184.3,1004.17,188.3,1000.17,192.3,1009.17,188.3" style="stroke:#181818;stroke-width:1.0;"/><text fill="#000000" font-family="sans-serif" font-size="13" lengthAdjust="spacing" textLength="140" x="851.5" y="181.3669">Pre-Split Color Counts</text></g><!--link CountSplit to MeasureIncrease--><g id="link_CountSplit_MeasureIncrease"><path d="M1072.63,39.36 C1016.27,46.91 955.36,59.84 938,81.3 C907,119.62 964.4857,149.3327 1016.4857,167.7927 " fill="none" id="CountSplit-to-MeasureIncrease" style="stroke:#181818;stroke-width:1.0;"/><polygon fill="#181818" points="1022.14,169.8,1014.9968,163.0196,1017.4281,168.1273,1012.3204,170.5586,1022.14,169.8" style="stroke:#181818;stroke-width:1.0;"/><text fill="#000000" font-family="sans-serif" font-size="13" lengthAdjust="spacing" textLength="147" x="939" y="101.8669">Post-Split Color Counts</text></g><!--link MeasureIncrease to Display Increase in Data Points--><g id="link_MeasureIncrease_Display Increase in Data Points"><path d="M1078.75,206.85 C1074.22,242.22 1064.9222,314.8386 1061.7422,339.6686 " fill="none" id="MeasureIncrease-to-Display Increase in Data Points" style="stroke:#181818;stroke-width:1.0;"/><polygon fill="#181818" points="1060.98,345.62,1066.0909,337.201,1061.6152,340.6605,1058.1557,336.1848,1060.98,345.62" style="stroke:#181818;stroke-width:1.0;"/><text fill="#000000" font-family="sans-serif" font-size="13" lengthAdjust="spacing" textLength="102" x="1073" y="283.8669">Increase Details</text></g><!--reverse link AddCount to OS--><g id="link_AddCount_OS"><path d="M571.17,28.65 C618.1,28.65 666.78,28.65 709.36,28.65 " fill="none" id="AddCount-backto-OS" style="stroke:#181818;stroke-width:1.0;"/><polygon fill="#181818" points="565.17,28.65,574.17,32.65,570.17,28.65,574.17,24.65,565.17,28.65" style="stroke:#181818;stroke-width:1.0;"/><text fill="#000000" font-family="sans-serif" font-size="13" lengthAdjust="spacing" textLength="108" x="583.25" y="21.7169">Two Image Paths</text></g><!--reverse link Display Total Data Points to AddCount--><g id="link_Display Total Data Points_AddCount"><path d="M106.22,28.65 C141.95,28.65 268,28.65 362.71,28.65 " fill="none" id="Display Total Data Points-backto-AddCount" style="stroke:#181818;stroke-width:1.0;"/><polygon fill="#181818" points="100.22,28.65,109.22,32.65,105.22,28.65,109.22,24.65,100.22,28.65" style="stroke:#181818;stroke-width:1.0;"/><text fill="#000000" font-family="sans-serif" font-size="13" lengthAdjust="spacing" textLength="226" x="118.5" y="21.7169">Total Color Counts &amp; Classifications</text></g><!--SRC=[bLHDZzem4BtxLunoQ4zSUkoX4WkxrHug8i5nByOPWeMn8zi8KDN_tl6O90vbLrqEYCoyDn_lJGW7RJlfvH4QtCcJYHkynBdHhJsYZQ3e2xqGN-6dSLjf8CIhGTWv3nvLbBOr64GOYWn1-2s0Fa_ED-WNpX1XQwGw5D7DNgk3nH3Wc_YJMYnnfor2w53fdLP5BwcYym6aRQ2HKLB6-KbVvOoXrjhPyCdE7ALqwzt9DXb_tkk8d9bxxyuv-CH5UD3d2ubYIOrd6tNKD4dPlrfrw6NKjeNrDKGyLY03hDQ9MNkdg2ynHgMg1NMEKEiBci1O3kJdzt0ioxepEiBhKRPO43bQykPDapDCsfnTIQ4avoQDf54d8oD2ZJwT0A5pVKgCePBo2sKuUOHNgppzpF1Ri8-nnyc-TROlMRcbE5Gy3xneSnkAd_cn0DKUPyN6N8hHbE1u2fHu5-8x1CgCZ7wg5-FEGQpMC6lSsSv-b3R0ztx8MiPz9ShKpEjs7mbVpf48-MuO6jxi5rWO6KAwRCc7Kea9OUWwqJZL6HVd2hUADCGKsHUebZfqHbxVx4WSOIHmAbay2zwvNs8yeUdE3ovE5DXHX5BR_rDXmfYTkiSYZ6v-h0Bp2mr6tiSYFBJqxeBlt2WscufnS-8HkrXZGh_7thivl5cWRRxNskd4P9lwt1AZrARtrE0kBT6_uWavlFtPr4eCoHuzDDouI7znzwroj9mT_lNqBm00]--></g></svg>