<?xml version="1.0" encoding="us-ascii" standalone="no"?><svg xmlns="http://www.w3.org/2000/svg" xmlns:xlink="http://www.w3.org/1999/xlink" contentStyleType="text/css" height="312px" preserveAspectRatio="none" style="width:927px;height:312px;background:#FFFFFF;" version="1.1" viewBox="0 0 927 312" width="927px" zoomAndPan="magnify"><defs/><g><!--entity OS--><g id="elem_OS"><rect fill="#FFFFFF" height="32.2969" rx="2.5" ry="2.5" style="stroke:#000000;stroke-width:2.0;" width="139" x="11" y="14.5"/><rect fill="#FFFFFF" height="32.2969" rx="2.5" ry="2.5" style="stroke:#000000;stroke-width:2.0;" width="139" x="7" y="10.5"/><text fill="#000000" font-family="sans-serif" font-size="14" lengthAdjust="spacing" textLength="123" x="15" y="31.4951">Operating System</text></g><!--entity User--><g id="elem_User"><rect fill="#FFFFFF" height="32.2969" rx="2.5" ry="2.5" style="stroke:#000000;stroke-width:2.0;" width="48" x="806.5" y="259.09"/><rect fill="#FFFFFF" height="32.2969" rx="2.5" ry="2.5" style="stroke:#000000;stroke-width:2.0;" width="48" x="802.5" y="255.09"/><text fill="#000000" font-family="sans-serif" font-size="14" lengthAdjust="spacing" textLength="32" x="810.5" y="276.0851">User</text></g><!--entity SaveImage--><g id="elem_SaveImage"><rect fill="#F1F1F1" height="36.2969" rx="2.5" ry="2.5" style="stroke:#000000;stroke-width:2.0;" width="99" x="342" y="255.09"/><text fill="#000000" font-family="sans-serif" font-size="14" lengthAdjust="spacing" textLength="79" x="352" y="278.0851">Save Image</text></g><!--entity SplitImage--><g id="elem_SplitImage"><rect fill="#F1F1F1" height="36.2969" rx="2.5" ry="2.5" style="stroke:#000000;stroke-width:2.0;" width="160" x="311.5" y="10.5"/><text fill="#000000" font-family="sans-serif" font-size="14" lengthAdjust="spacing" textLength="140" x="321.5" y="33.4951">Split Image into Four</text></g><!--entity ShowImage--><g id="elem_ShowImage"><rect fill="#F1F1F1" height="36.2969" rx="2.5" ry="2.5" style="stroke:#000000;stroke-width:2.0;" width="189" x="613" y="132.8"/><text fill="#000000" font-family="sans-serif" font-size="14" lengthAdjust="spacing" textLength="169" x="623" y="155.7951">Show Segmented Image</text></g><!--entity ImageFiles--><g id="elem_ImageFiles"><path d="M506,16 C506,6 554.5,6 554.5,6 C554.5,6 603,6 603,16 L603,41.2969 C603,51.2969 554.5,51.2969 554.5,51.2969 C554.5,51.2969 506,51.2969 506,41.2969 L506,16 " fill="#F1F1F1" style="stroke:#181818;stroke-width:0.5;"/><path d="M506,16 C506,26 554.5,26 554.5,26 C554.5,26 603,26 603,16 " fill="none" style="stroke:#181818;stroke-width:0.5;"/><text fill="#000000" font-family="sans-serif" font-size="14" lengthAdjust="spacing" textLength="77" x="516" y="42.9951">Image Files</text></g><!--entity SplitFiles--><g id="elem_SplitFiles"><path d="M326.5,138.3 C326.5,128.3 391.5,128.3 391.5,128.3 C391.5,128.3 456.5,128.3 456.5,138.3 L456.5,163.5969 C456.5,173.5969 391.5,173.5969 391.5,173.5969 C391.5,173.5969 326.5,173.5969 326.5,163.5969 L326.5,138.3 " fill="#F1F1F1" style="stroke:#181818;stroke-width:0.5;"/><path d="M326.5,138.3 C326.5,148.3 391.5,148.3 391.5,148.3 C391.5,148.3 456.5,148.3 456.5,138.3 " fill="none" style="stroke:#181818;stroke-width:0.5;"/><text fill="#000000" font-family="sans-serif" font-size="14" lengthAdjust="spacing" textLength="110" x="336.5" y="165.2951">Split Image Files</text></g><!--entity ImageMeta--><g id="elem_ImageMeta"><path d="M603.5,260.59 C603.5,250.59 668.5,250.59 668.5,250.59 C668.5,250.59 733.5,250.59 733.5,260.59 L733.5,285.8869 C733.5,295.8869 668.5,295.8869 668.5,295.8869 C668.5,295.8869 603.5,295.8869 603.5,285.8869 L603.5,260.59 " fill="#F1F1F1" style="stroke:#181818;stroke-width:0.5;"/><path d="M603.5,260.59 C603.5,270.59 668.5,270.59 668.5,270.59 C668.5,270.59 733.5,270.59 733.5,260.59 " fill="none" style="stroke:#181818;stroke-width:0.5;"/><text fill="#000000" font-family="sans-serif" font-size="14" lengthAdjust="spacing" textLength="110" x="613.5" y="287.5851">Image Metadata</text></g><!--link OS to SplitImage--><g id="link_OS_SplitImage"><path d="M150.31,28.65 C198.32,28.65 255.54,28.65 305.22,28.65 " fill="none" id="OS-to-SplitImage" style="stroke:#181818;stroke-width:1.0;"/><polygon fill="#181818" points="311.22,28.65,302.22,24.65,306.22,28.65,302.22,32.65,311.22,28.65" style="stroke:#181818;stroke-width:1.0;"/><text fill="#000000" font-family="sans-serif" font-size="13" lengthAdjust="spacing" textLength="125" x="168.25" y="21.7169">Original Image Path</text></g><!--link SplitImage to SplitFiles--><g id="link_SplitImage_SplitFiles"><path d="M391.5,47.14 C391.5,68.51 391.5,98.69 391.5,121.94 " fill="none" id="SplitImage-to-SplitFiles" style="stroke:#181818;stroke-width:1.0;"/><polygon fill="#181818" points="391.5,127.94,395.5,118.94,391.5,122.94,387.5,118.94,391.5,127.94" style="stroke:#181818;stroke-width:1.0;"/><text fill="#000000" font-family="sans-serif" font-size="13" lengthAdjust="spacing" textLength="111" x="392.5" y="94.3669">Quadrant Images</text></g><!--link SplitFiles to SaveImage--><g id="link_SplitFiles_SaveImage"><path d="M391.5,174.01 C391.5,197.21 391.5,227.24 391.5,248.62 " fill="none" id="SplitFiles-to-SaveImage" style="stroke:#181818;stroke-width:1.0;"/><polygon fill="#181818" points="391.5,254.62,395.5,245.62,391.5,249.62,387.5,245.62,391.5,254.62" style="stroke:#181818;stroke-width:1.0;"/><text fill="#000000" font-family="sans-serif" font-size="13" lengthAdjust="spacing" textLength="152" x="392.5" y="216.6569">Quadrant Image Details</text></g><!--link SplitFiles to ShowImage--><g id="link_SplitFiles_ShowImage"><path d="M456.98,150.94 C501.99,150.94 556.47,150.94 606.73,150.94 " fill="none" id="SplitFiles-to-ShowImage" style="stroke:#181818;stroke-width:1.0;"/><polygon fill="#181818" points="612.73,150.94,603.73,146.94,607.73,150.94,603.73,154.94,612.73,150.94" style="stroke:#181818;stroke-width:1.0;"/><text fill="#000000" font-family="sans-serif" font-size="13" lengthAdjust="spacing" textLength="120" x="474.75" y="144.0069">Path &amp; Image Files</text></g><!--reverse link ImageMeta to SaveImage--><g id="link_ImageMeta_SaveImage"><path d="M597.15,273.24 C547.62,273.24 486.59,273.24 441.34,273.24 " fill="none" id="ImageMeta-backto-SaveImage" style="stroke:#181818;stroke-width:1.0;"/><polygon fill="#181818" points="603.15,273.24,594.15,269.24,598.15,273.24,594.15,277.24,603.15,273.24" style="stroke:#181818;stroke-width:1.0;"/><text fill="#000000" font-family="sans-serif" font-size="13" lengthAdjust="spacing" textLength="126" x="459.25" y="266.3069">File Names &amp; Paths</text></g><!--reverse link ShowImage to User--><g id="link_ShowImage_User"><path d="M764.4986,172.1455 C781.5986,180.1955 794.01,188.77 806.5,203.59 C818.76,218.14 824.21,239.62 826.63,254.66 " fill="none" id="ShowImage-backto-User" style="stroke:#181818;stroke-width:1.0;"/><polygon fill="#181818" points="759.07,169.59,765.5091,177.0424,763.5938,171.7196,768.9165,169.8043,759.07,169.59" style="stroke:#181818;stroke-width:1.0;"/><text fill="#000000" font-family="sans-serif" font-size="13" lengthAdjust="spacing" textLength="102" x="817.5" y="216.6569">Display Request</text></g><!--link ShowImage to User--><g id="link_ShowImage_User"><path d="M692.95,169.55 C682.7,184.21 672.58,205.12 683.5,220.59 C690.59,230.64 756.6348,251.2336 796.4648,262.9736 " fill="none" id="ShowImage-to-User" style="stroke:#181818;stroke-width:1.0;"/><polygon fill="#181818" points="802.22,264.67,794.7181,258.2887,797.424,263.2564,792.4563,265.9623,802.22,264.67" style="stroke:#181818;stroke-width:1.0;"/><text fill="#000000" font-family="sans-serif" font-size="13" lengthAdjust="spacing" textLength="113" x="684.5" y="216.6569">Displayed Images</text></g><!--SRC=[bLAxSjmm3Epr5HWLJdLDoXIPiMDV9aLoJkHy08w29CvHf492aMyo-VU0fFMogwZGYC3kOhbGk6WxeCSUQcfmDFn4ptnhT6jxiWnANkIBuXryDkwC1W9V3K7ZF7XIZBOr58gmY2n5-5E0F7VEr-G_EIE4iq5rsLIVEgqkbaA0zyNVEEAU6cq9ma1ADrfjPg5YvmEWhQ56Hkaulvkhd34oMZiR_dDogagxzMwqTSPFdMPAdLlltPIBTqaa6Nrubb2ifF5WMRCM9zlvvMaWZwnj2zKrCFKbO81JjGVz3EHJ8tv4qKVlb5WIiJN4iiBV15zwR2bXup6TTfZ1QCuWq9OT7DsOfLFdBRvp4rJKnWLJlLMNHaR7PSISgvnppFoCGRXvob7BrXCbdTDn0zeQMg6f-XgQGL-9CTPMoLXPN1oDcq9ngk3WTTlnuUFcOl11yfQoZkl8bKVahYmsa4Fj9ZkpaeF8-ZvYxT6-60qlZDnU67FURmdojp9gyugt69oZZCHe26vsWHIhyi5G4odBlICbek0Rzg9vaouabFYZBEZTW7iT1eDN-46_HWeiwajtlaaYhz1vxw7y1m00]--></g></svg>