<?xml version="1.0" encoding="us-ascii" standalone="no"?><svg xmlns="http://www.w3.org/2000/svg" xmlns:xlink="http://www.w3.org/1999/xlink" contentStyleType="text/css" height="312px" preserveAspectRatio="none" style="width:1271px;height:312px;background:#FFFFFF;" version="1.1" viewBox="0 0 1271 312" width="1271px" zoomAndPan="magnify"><defs/><g><!--entity OS--><g id="elem_OS"><rect fill="#FFFFFF" height="32.2969" rx="2.5" ry="2.5" style="stroke:#000000;stroke-width:2.0;" width="139" x="481" y="14.5"/><rect fill="#FFFFFF" height="32.2969" rx="2.5" ry="2.5" style="stroke:#000000;stroke-width:2.0;" width="139" x="477" y="10.5"/><text fill="#000000" font-family="sans-serif" font-size="14" lengthAdjust="spacing" textLength="123" x="485" y="31.4951">Operating System</text></g><!--entity SplitFiles--><g id="elem_SplitFiles"><rect fill="#F1F1F1" height="36.2969" rx="2.5" ry="2.5" style="stroke:#000000;stroke-width:2.0;" width="84" x="506.5" y="132.8"/><text fill="#000000" font-family="sans-serif" font-size="14" lengthAdjust="spacing" textLength="64" x="516.5" y="155.7951">Split Files</text></g><!--entity InitiateSplit--><g id="elem_InitiateSplit"><rect fill="#F1F1F1" height="36.2969" rx="2.5" ry="2.5" style="stroke:#000000;stroke-width:2.0;" width="98" x="1007.5" y="132.8"/><text fill="#000000" font-family="sans-serif" font-size="14" lengthAdjust="spacing" textLength="78" x="1017.5" y="155.7951">Initiate Split</text></g><!--entity MoveMasks--><g id="elem_MoveMasks"><rect fill="#F1F1F1" height="36.2969" rx="2.5" ry="2.5" style="stroke:#000000;stroke-width:2.0;" width="212" x="259.5" y="132.8"/><text fill="#000000" font-family="sans-serif" font-size="14" lengthAdjust="spacing" textLength="192" x="269.5" y="155.7951">Move Corresponding Masks</text></g><!--entity SARFiles--><g id="elem_SARFiles"><path d="M681,138.3 C681,128.3 722.5,128.3 722.5,128.3 C722.5,128.3 764,128.3 764,138.3 L764,163.5969 C764,173.5969 722.5,173.5969 722.5,173.5969 C722.5,173.5969 681,173.5969 681,163.5969 L681,138.3 " fill="#F1F1F1" style="stroke:#181818;stroke-width:0.5;"/><path d="M681,138.3 C681,148.3 722.5,148.3 722.5,148.3 C722.5,148.3 764,148.3 764,138.3 " fill="none" style="stroke:#181818;stroke-width:0.5;"/><text fill="#000000" font-family="sans-serif" font-size="14" lengthAdjust="spacing" textLength="63" x="691" y="165.2951">SAR Files</text></g><!--entity MaskFiles--><g id="elem_MaskFiles"><path d="M320,16 C320,6 365.5,6 365.5,6 C365.5,6 411,6 411,16 L411,41.2969 C411,51.2969 365.5,51.2969 365.5,51.2969 C365.5,51.2969 320,51.2969 320,41.2969 L320,16 " fill="#F1F1F1" style="stroke:#181818;stroke-width:0.5;"/><path d="M320,16 C320,26 365.5,26 365.5,26 C365.5,26 411,26 411,16 " fill="none" style="stroke:#181818;stroke-width:0.5;"/><text fill="#000000" font-family="sans-serif" font-size="14" lengthAdjust="spacing" textLength="71" x="330" y="42.9951">Mask Files</text></g><!--entity TrainSAR--><g id="elem_TrainSAR"><path d="M855,260.59 C855,250.59 908.5,250.59 908.5,250.59 C908.5,250.59 962,250.59 962,260.59 L962,285.8869 C962,295.8869 908.5,295.8869 908.5,295.8869 C908.5,295.8869 855,295.8869 855,285.8869 L855,260.59 " fill="#F1F1F1" style="stroke:#181818;stroke-width:0.5;"/><path d="M855,260.59 C855,270.59 908.5,270.59 908.5,270.59 C908.5,270.59 962,270.59 962,260.59 " fill="none" style="stroke:#181818;stroke-width:0.5;"/><text fill="#000000" font-family="sans-serif" font-size="14" lengthAdjust="spacing" textLength="87" x="865" y="287.5851">Training SAR</text></g><!--entity ValSAR--><g id="elem_ValSAR"><path d="M997.5,260.59 C997.5,250.59 1056.5,250.59 1056.5,250.59 C1056.5,250.59 1115.5,250.59 1115.5,260.59 L1115.5,285.8869 C1115.5,295.8869 1056.5,295.8869 1056.5,295.8869 C1056.5,295.8869 997.5,295.8869 997.5,285.8869 L997.5,260.59 " fill="#F1F1F1" style="stroke:#181818;stroke-width:0.5;"/><path d="M997.5,260.59 C997.5,270.59 1056.5,270.59 1056.5,270.59 C1056.5,270.59 1115.5,270.59 1115.5,260.59 " fill="none" style="stroke:#181818;stroke-width:0.5;"/><text fill="#000000" font-family="sans-serif" font-size="14" lengthAdjust="spacing" textLength="98" x="1007.5" y="287.5851">Validation SAR</text></g><!--entity TestSAR--><g id="elem_TestSAR"><path d="M1150.5,260.59 C1150.5,250.59 1202.5,250.59 1202.5,250.59 C1202.5,250.59 1254.5,250.59 1254.5,260.59 L1254.5,285.8869 C1254.5,295.8869 1202.5,295.8869 1202.5,295.8869 C1202.5,295.8869 1150.5,295.8869 1150.5,285.8869 L1150.5,260.59 " fill="#F1F1F1" style="stroke:#181818;stroke-width:0.5;"/><path d="M1150.5,260.59 C1150.5,270.59 1202.5,270.59 1202.5,270.59 C1202.5,270.59 1254.5,270.59 1254.5,260.59 " fill="none" style="stroke:#181818;stroke-width:0.5;"/><text fill="#000000" font-family="sans-serif" font-size="14" lengthAdjust="spacing" textLength="84" x="1160.5" y="287.5851">Testing SAR</text></g><!--entity TrainMasks--><g id="elem_TrainMasks"><path d="M6,138.3 C6,128.3 67.5,128.3 67.5,128.3 C67.5,128.3 129,128.3 129,138.3 L129,163.5969 C129,173.5969 67.5,173.5969 67.5,173.5969 C67.5,173.5969 6,173.5969 6,163.5969 L6,138.3 " fill="#F1F1F1" style="stroke:#181818;stroke-width:0.5;"/><path d="M6,138.3 C6,148.3 67.5,148.3 67.5,148.3 C67.5,148.3 129,148.3 129,138.3 " fill="none" style="stroke:#181818;stroke-width:0.5;"/><text fill="#000000" font-family="sans-serif" font-size="14" lengthAdjust="spacing" textLength="103" x="16" y="165.2951">Training Masks</text></g><!--entity ValMasks--><g id="elem_ValMasks"><path d="M217.5,260.59 C217.5,250.59 284.5,250.59 284.5,250.59 C284.5,250.59 351.5,250.59 351.5,260.59 L351.5,285.8869 C351.5,295.8869 284.5,295.8869 284.5,295.8869 C284.5,295.8869 217.5,295.8869 217.5,285.8869 L217.5,260.59 " fill="#F1F1F1" style="stroke:#181818;stroke-width:0.5;"/><path d="M217.5,260.59 C217.5,270.59 284.5,270.59 284.5,270.59 C284.5,270.59 351.5,270.59 351.5,260.59 " fill="none" style="stroke:#181818;stroke-width:0.5;"/><text fill="#000000" font-family="sans-serif" font-size="14" lengthAdjust="spacing" textLength="114" x="227.5" y="287.5851">Validation Masks</text></g><!--entity TestMasks--><g id="elem_TestMasks"><path d="M386.5,260.59 C386.5,250.59 446.5,250.59 446.5,250.59 C446.5,250.59 506.5,250.59 506.5,260.59 L506.5,285.8869 C506.5,295.8869 446.5,295.8869 446.5,295.8869 C446.5,295.8869 386.5,295.8869 386.5,285.8869 L386.5,260.59 " fill="#F1F1F1" style="stroke:#181818;stroke-width:0.5;"/><path d="M386.5,260.59 C386.5,270.59 446.5,270.59 446.5,270.59 C446.5,270.59 506.5,270.59 506.5,260.59 " fill="none" style="stroke:#181818;stroke-width:0.5;"/><text fill="#000000" font-family="sans-serif" font-size="14" lengthAdjust="spacing" textLength="100" x="396.5" y="287.5851">Testing Masks</text></g><!--link OS to SplitFiles--><g id="link_OS_SplitFiles"><path d="M548.5,47.14 C548.5,69.95 548.5,103.61 548.5,126.43 " fill="none" id="OS-to-SplitFiles" style="stroke:#181818;stroke-width:1.0;"/><polygon fill="#181818" points="548.5,132.43,552.5,123.43,548.5,127.43,544.5,123.43,548.5,132.43" style="stroke:#181818;stroke-width:1.0;"/><text fill="#000000" font-family="sans-serif" font-size="13" lengthAdjust="spacing" textLength="87" x="549.5" y="94.3669">Path &amp; Ratios</text></g><!--link SplitFiles to SARFiles--><g id="link_SplitFiles_SARFiles"><path d="M590.62,150.94 C617.98,150.94 647.49,150.94 674.77,150.94 " fill="none" id="SplitFiles-to-SARFiles" style="stroke:#181818;stroke-width:1.0;"/><polygon fill="#181818" points="680.77,150.94,671.77,146.94,675.77,150.94,671.77,154.94,680.77,150.94" style="stroke:#181818;stroke-width:1.0;"/><text fill="#000000" font-family="sans-serif" font-size="13" lengthAdjust="spacing" textLength="54" x="608.75" y="144.0069">File Lists</text></g><!--link SARFiles to InitiateSplit--><g id="link_SARFiles_InitiateSplit"><path d="M764.46,150.94 C826.22,150.94 935.37,150.94 1001.12,150.94 " fill="none" id="SARFiles-to-InitiateSplit" style="stroke:#181818;stroke-width:1.0;"/><polygon fill="#181818" points="1007.12,150.94,998.12,146.94,1002.12,150.94,998.12,154.94,1007.12,150.94" style="stroke:#181818;stroke-width:1.0;"/><text fill="#000000" font-family="sans-serif" font-size="13" lengthAdjust="spacing" textLength="207" x="782.25" y="144.0069">Training, Validation, Testing Files</text></g><!--link InitiateSplit to TrainSAR--><g id="link_InitiateSplit_TrainSAR"><path d="M1017.74,169.59 C1000.48,178.44 980.48,190.16 964.5,203.59 C948.37,217.15 936.9667,230.9842 926.5967,245.4442 " fill="none" id="InitiateSplit-to-TrainSAR" style="stroke:#181818;stroke-width:1.0;"/><polygon fill="#181818" points="923.1,250.32,931.5955,245.3374,926.0139,246.2568,925.0945,240.6752,923.1,250.32" style="stroke:#181818;stroke-width:1.0;"/><text fill="#000000" font-family="sans-serif" font-size="13" lengthAdjust="spacing" textLength="82" x="965.5" y="216.6569">Training Files</text></g><!--link InitiateSplit to ValSAR--><g id="link_InitiateSplit_ValSAR"><path d="M1056.5,169.44 C1056.5,190.81 1056.5,220.99 1056.5,244.23 " fill="none" id="InitiateSplit-to-ValSAR" style="stroke:#181818;stroke-width:1.0;"/><polygon fill="#181818" points="1056.5,250.23,1060.5,241.23,1056.5,245.23,1052.5,241.23,1056.5,250.23" style="stroke:#181818;stroke-width:1.0;"/><text fill="#000000" font-family="sans-serif" font-size="13" lengthAdjust="spacing" textLength="95" x="1057.5" y="216.6569">Validation Files</text></g><!--link InitiateSplit to TestSAR--><g id="link_InitiateSplit_TestSAR"><path d="M1105.83,169.21 C1124.75,177.53 1145.59,188.93 1161.5,203.59 C1175.59,216.58 1183.8264,230.09 1190.8064,244.79 " fill="none" id="InitiateSplit-to-TestSAR" style="stroke:#181818;stroke-width:1.0;"/><polygon fill="#181818" points="1193.38,250.21,1193.133,240.3642,1191.2353,245.6933,1185.9063,243.7957,1193.38,250.21" style="stroke:#181818;stroke-width:1.0;"/><text fill="#000000" font-family="sans-serif" font-size="13" lengthAdjust="spacing" textLength="78" x="1176.5" y="216.6569">Testing Files</text></g><!--link MaskFiles to MoveMasks--><g id="link_MaskFiles_MoveMasks"><path d="M365.5,51.71 C365.5,74.91 365.5,104.95 365.5,126.32 " fill="none" id="MaskFiles-to-MoveMasks" style="stroke:#181818;stroke-width:1.0;"/><polygon fill="#181818" points="365.5,132.32,369.5,123.32,365.5,127.32,361.5,123.32,365.5,132.32" style="stroke:#181818;stroke-width:1.0;"/><text fill="#000000" font-family="sans-serif" font-size="13" lengthAdjust="spacing" textLength="65" x="366.5" y="94.3669">Mask Files</text></g><!--reverse link TrainMasks to MoveMasks--><g id="link_TrainMasks_MoveMasks"><path d="M135.25,150.94 C172.75,150.94 215.65,150.94 259.22,150.94 " fill="none" id="TrainMasks-backto-MoveMasks" style="stroke:#181818;stroke-width:1.0;"/><polygon fill="#181818" points="129.25,150.94,138.25,154.94,134.25,150.94,138.25,146.94,129.25,150.94" style="stroke:#181818;stroke-width:1.0;"/><text fill="#000000" font-family="sans-serif" font-size="13" lengthAdjust="spacing" textLength="94" x="147.25" y="144.0069">Training Masks</text></g><!--link MoveMasks to ValMasks--><g id="link_MoveMasks_ValMasks"><path d="M330.65,169.41 C317.24,177.9 303.09,189.37 294.5,203.59 C286.03,217.61 283.862,230.1112 283.572,244.3712 " fill="none" id="MoveMasks-to-ValMasks" style="stroke:#181818;stroke-width:1.0;"/><polygon fill="#181818" points="283.45,250.37,287.6322,241.4532,283.5517,245.371,279.6338,241.2905,283.45,250.37" style="stroke:#181818;stroke-width:1.0;"/><text fill="#000000" font-family="sans-serif" font-size="13" lengthAdjust="spacing" textLength="107" x="295.5" y="216.6569">Validation Masks</text></g><!--link MoveMasks to TestMasks--><g id="link_MoveMasks_TestMasks"><path d="M381.03,169.54 C389.31,179.28 399.41,191.76 407.5,203.59 C417.79,218.64 425.0817,231.2884 432.4417,245.0584 " fill="none" id="MoveMasks-to-TestMasks" style="stroke:#181818;stroke-width:1.0;"/><polygon fill="#181818" points="435.27,250.35,434.5552,240.5271,432.9131,245.9404,427.4998,244.2982,435.27,250.35" style="stroke:#181818;stroke-width:1.0;"/><text fill="#000000" font-family="sans-serif" font-size="13" lengthAdjust="spacing" textLength="90" x="419.5" y="216.6569">Testing Masks</text></g><!--SRC=[bPB1Rjim38RlUWh2X-xIN7RieO3RjSE05YdYO7V5fXqXYcH8xDAYwBkFacPPJei2oy48oO_wgP_o1sL6wUGHEkpbiwOjlb2jrM2EQ0XQ_g0JuXlyr7OdDNXwrGYzTU2m9Ma6ZLxuV4XEmfi0_jrOrw6xjPeRTbgsXoAxtQlsOD1x-2xUWyGFx9L1y2EsgbTjeILRiiw3D1rqaYHNh5lejbPhbbRM-FzKZbak3yu-coxnfxqYZ9NQENjAoPjuI1pqxeLDCUp6dI55YYSfzQlrY4wICWCqhvxmM87qi6v2vvEpBUjon-nKrOnQ4TmhjZAYCOvXIVqoB2K9Kpc2KofcIlRH_a6ujOvD6gtfmYYFqX_IyQ4Oe-XviBD9TWPhTzA7YUfDEK-zITFCGEWlY12U8ridbOacr9i8nGG71VDRQiKHsvOfJYsPBNfQ7CFn6J4fpNUCgNJ9JzLcafFdtAHO7CUPfMNtsfwyM3Umwkp9hAwBfS4LL4-Izd01cw3cAr4KLquDUmeD_rmDUFW33yfJOATy9XTh3lXquKkOhtG9qzXfBMBPDOqvBQ4yvkkEj9305_vzhP4s52MMCudyK3ASNsF0YsSbvi9AOq_Jx9azsth9pvDd-iFkF-7pbil94_qN]--></g></svg>