<?xml version="1.0" encoding="us-ascii" standalone="no"?><svg xmlns="http://www.w3.org/2000/svg" xmlns:xlink="http://www.w3.org/1999/xlink" contentStyleType="text/css" height="245px" preserveAspectRatio="none" style="width:915px;height:245px;background:#FFFFFF;" version="1.1" viewBox="0 0 915 245" width="915px" zoomAndPan="magnify"><defs/><g><!--entity User--><g id="elem_User"><rect fill="#FFFFFF" height="32.2969" rx="2.5" ry="2.5" style="stroke:#000000;stroke-width:2.0;" width="54" x="501" y="69.89"/><rect fill="#FFFFFF" height="32.2969" rx="2.5" ry="2.5" style="stroke:#000000;stroke-width:2.0;" width="54" x="497" y="65.89"/><text fill="#000000" font-family="sans-serif" font-size="14" lengthAdjust="spacing" textLength="38" x="505" y="86.8851">USER</text></g><!--entity FileSystem--><g id="elem_FileSystem"><rect fill="#FFFFFF" height="32.2969" rx="2.5" ry="2.5" style="stroke:#000000;stroke-width:2.0;" width="104" x="322" y="69.89"/><rect fill="#FFFFFF" height="32.2969" rx="2.5" ry="2.5" style="stroke:#000000;stroke-width:2.0;" width="104" x="318" y="65.89"/><text fill="#000000" font-family="sans-serif" font-size="14" lengthAdjust="spacing" textLength="88" x="326" y="86.8851">FILE SYSTEM</text></g><!--entity SaveImage--><g id="elem_SaveImage"><rect fill="#F1F1F1" height="36.2969" rx="2.5" ry="2.5" style="stroke:#000000;stroke-width:2.0;" width="99" x="308.5" y="188.18"/><text fill="#000000" font-family="sans-serif" font-size="14" lengthAdjust="spacing" textLength="79" x="318.5" y="211.1751">Save Image</text></g><!--entity SplitImage--><g id="elem_SplitImage"><rect fill="#F1F1F1" height="36.2969" rx="2.5" ry="2.5" style="stroke:#000000;stroke-width:2.0;" width="160" x="590" y="65.89"/><text fill="#000000" font-family="sans-serif" font-size="14" lengthAdjust="spacing" textLength="140" x="600" y="88.8851">Split Image into Four</text></g><!--entity ShowImage--><g id="elem_ShowImage"><rect fill="#F1F1F1" height="36.2969" rx="2.5" ry="2.5" style="stroke:#000000;stroke-width:2.0;" width="189" x="442.5" y="188.18"/><text fill="#000000" font-family="sans-serif" font-size="14" lengthAdjust="spacing" textLength="169" x="452.5" y="211.1751">Show Segmented Image</text></g><!--entity SavedData--><g id="elem_SavedData"><path d="M6,193.68 C6,183.68 78,183.68 78,183.68 C78,183.68 150,183.68 150,193.68 L150,218.9769 C150,228.9769 78,228.9769 78,228.9769 C78,228.9769 6,228.9769 6,218.9769 L6,193.68 " fill="#F1F1F1" style="stroke:#181818;stroke-width:0.5;"/><path d="M6,193.68 C6,203.68 78,203.68 78,203.68 C78,203.68 150,203.68 150,193.68 " fill="none" style="stroke:#181818;stroke-width:0.5;"/><text fill="#000000" font-family="sans-serif" font-size="14" lengthAdjust="spacing" textLength="124" x="16" y="220.6751">Saved Image Data</text></g><!--entity SplitData--><g id="elem_SplitData"><path d="M767.5,193.68 C767.5,183.68 833,183.68 833,183.68 C833,183.68 898.5,183.68 898.5,193.68 L898.5,218.9769 C898.5,228.9769 833,228.9769 833,228.9769 C833,228.9769 767.5,228.9769 767.5,218.9769 L767.5,193.68 " fill="#F1F1F1" style="stroke:#181818;stroke-width:0.5;"/><path d="M767.5,193.68 C767.5,203.68 833,203.68 833,203.68 C833,203.68 898.5,203.68 898.5,193.68 " fill="none" style="stroke:#181818;stroke-width:0.5;"/><text fill="#000000" font-family="sans-serif" font-size="14" lengthAdjust="spacing" textLength="111" x="777.5" y="220.6751">Split Image Data</text></g><!--entity ImageFiles--><g id="elem_ImageFiles"><path d="M784.5,71.39 C784.5,61.39 833,61.39 833,61.39 C833,61.39 881.5,61.39 881.5,71.39 L881.5,96.6869 C881.5,106.6869 833,106.6869 833,106.6869 C833,106.6869 784.5,106.6869 784.5,96.6869 L784.5,71.39 " fill="#F1F1F1" style="stroke:#181818;stroke-width:0.5;"/><path d="M784.5,71.39 C784.5,81.39 833,81.39 833,81.39 C833,81.39 881.5,81.39 881.5,71.39 " fill="none" style="stroke:#181818;stroke-width:0.5;"/><text fill="#000000" font-family="sans-serif" font-size="14" lengthAdjust="spacing" textLength="77" x="794.5" y="98.3851">Image Files</text></g><!--link FileSystem to SplitImage--><g id="link_FileSystem_SplitImage"><path d="M393.02,65.47 C410.71,51.17 437.39,32.54 464.5,24.58 C527.75,6 596.9394,38.6924 636.5694,62.3724 " fill="none" id="FileSystem-to-SplitImage" style="stroke:#181818;stroke-width:1.0;"/><polygon fill="#181818" points="641.72,65.45,636.0459,57.3999,637.4279,62.8853,631.9424,64.2673,641.72,65.45" style="stroke:#181818;stroke-width:1.0;"/><text fill="#000000" font-family="sans-serif" font-size="13" lengthAdjust="spacing" textLength="73" x="465.5" y="27.4569">Image Path</text></g><!--link SplitImage to SplitData--><g id="link_SplitImage_SplitData"><path d="M693.7,102.53 C722.66,123.9 766.8624,156.5171 798.3524,179.7571 " fill="none" id="SplitImage-to-SplitData" style="stroke:#181818;stroke-width:1.0;"/><polygon fill="#181818" points="803.18,183.32,798.3138,174.7573,799.157,180.351,793.5633,181.1941,803.18,183.32" style="stroke:#181818;stroke-width:1.0;"/><text fill="#000000" font-family="sans-serif" font-size="13" lengthAdjust="spacing" textLength="111" x="763" y="149.7469">Quadrant Images</text></g><!--reverse link ShowImage to SplitData--><g id="link_ShowImage_SplitData"><path d="M637.88,206.33 C682.01,206.33 727.41,206.33 767.21,206.33 " fill="none" id="ShowImage-backto-SplitData" style="stroke:#181818;stroke-width:1.0;"/><polygon fill="#181818" points="631.88,206.33,640.88,210.33,636.88,206.33,640.88,202.33,631.88,206.33" style="stroke:#181818;stroke-width:1.0;"/><text fill="#000000" font-family="sans-serif" font-size="13" lengthAdjust="spacing" textLength="100" x="649.5" y="199.3969">Quadrant Paths</text></g><!--reverse link User to ShowImage--><g id="link_User_ShowImage"><path d="M528.1477,108.5049 C530.2377,131.3049 533.31,165 535.4,187.82 " fill="none" id="User-backto-ShowImage" style="stroke:#181818;stroke-width:1.0;"/><polygon fill="#181818" points="527.6,102.53,524.4383,111.8576,528.0564,107.5091,532.4049,111.1273,527.6,102.53" style="stroke:#181818;stroke-width:1.0;"/><text fill="#000000" font-family="sans-serif" font-size="13" lengthAdjust="spacing" textLength="76" x="534" y="149.7469">Display Grid</text></g><!--link FileSystem to SaveImage--><g id="link_FileSystem_SaveImage"><path d="M369.96,102.53 C367.31,125.33 363.3821,159.0401 360.7321,181.8601 " fill="none" id="FileSystem-to-SaveImage" style="stroke:#181818;stroke-width:1.0;"/><polygon fill="#181818" points="360.04,187.82,365.0515,179.3415,360.6168,182.8534,357.1049,178.4187,360.04,187.82" style="stroke:#181818;stroke-width:1.0;"/><text fill="#000000" font-family="sans-serif" font-size="13" lengthAdjust="spacing" textLength="101" x="367" y="149.7469">Image and Path</text></g><!--reverse link SavedData to SaveImage--><g id="link_SavedData_SaveImage"><path d="M156.47,206.33 C206.05,206.33 264.5,206.33 308.33,206.33 " fill="none" id="SavedData-backto-SaveImage" style="stroke:#181818;stroke-width:1.0;"/><polygon fill="#181818" points="150.47,206.33,159.47,210.33,155.47,206.33,159.47,202.33,150.47,206.33" style="stroke:#181818;stroke-width:1.0;"/><text fill="#000000" font-family="sans-serif" font-size="13" lengthAdjust="spacing" textLength="122" x="168.25" y="199.3969">Image Save Status</text></g><!--reverse link FileSystem to SavedData--><g id="link_FileSystem_SavedData"><path d="M319.024,104.712 C293.044,114.482 265.94,124.91 237,136.68 C200.1,151.7 158.8,169.56 127.55,183.3 " fill="none" id="FileSystem-backto-SavedData" style="stroke:#181818;stroke-width:1.0;"/><polygon fill="#181818" points="324.64,102.6,314.808,102.0239,319.96,104.36,317.6239,109.5119,324.64,102.6" style="stroke:#181818;stroke-width:1.0;"/><text fill="#000000" font-family="sans-serif" font-size="13" lengthAdjust="spacing" textLength="118" x="238" y="149.7469">Save Confirmation</text></g><!--link SavedData to FileSystem--><g id="link_SavedData_FileSystem"><path d="M77.94,183.38 C79.12,168.14 83.28,148.52 96,136.68 C127.49,107.37 240.7681,94.3957 311.8081,88.8657 " fill="none" id="SavedData-to-FileSystem" style="stroke:#181818;stroke-width:1.0;"/><polygon fill="#181818" points="317.79,88.4,308.5067,85.1105,312.8051,88.788,309.1276,93.0864,317.79,88.4" style="stroke:#181818;stroke-width:1.0;"/><text fill="#000000" font-family="sans-serif" font-size="13" lengthAdjust="spacing" textLength="92" x="97" y="149.7469">Filenames Log</text></g><!--SRC=[bP8zZzim38Pt_mh2IoSl7MyeS1_9uO0hSArpGqV6ecqXicI8Sdr1qVzUVTYEt4xD481y7vAlIV55wX4j3Y2enKcv4tsuUoKxFP1sqFW_iaNn2PwLEQC2TbT5q1eBbXg7kbF41MzDjYJyAi3_7emLP1-DyWLdXSqbovvwsLmqCSFdudSOyKIjr0GyKYDRsMIpi776Cg0M8D2XLupTpMsCKdwqD9h_StBCUhcpPj8YyNCl7KNbtbepf-H3R1AD7ZxyKhJVXj-ETD8xoUU_Ctd73ELxVVXUxgIZL5HVsT4GWUFBwm7g7_NfyBKCVT-iQRmht- -snxB6dmGl0tPKXg8GncZ7Z4gw187Kpi3HJ3RXGVcNxyqCDNNXnYJoxbv8TBX7jkgmzZFoucSfYSJcIeGe1pDJDp0a_m8J4dR3aObn33SNhJ8p5zdwAYkxtbLViW-4kxNL6xg-B3Ab4cRMAnmRUlRRXCAYNYpoKX3LIb4Rcw_hsF6XVS0tiPf63yUxU-v9ygZm2izM2d_MtFHgOxtXpN9useljJTnShCkzuV5Hr0xTnAaYwSb8Dl5kUJ-FHhVI3XYUuQvWSRGl2P76WHXUJLV-0G00]--></g></svg>