<?xml version="1.0" encoding="us-ascii" standalone="no"?><svg xmlns="http://www.w3.org/2000/svg" xmlns:xlink="http://www.w3.org/1999/xlink" contentStyleType="text/css" height="642px" preserveAspectRatio="none" style="width:707px;height:642px;background:#FFFFFF;" version="1.1" viewBox="0 0 707 642" width="707px" zoomAndPan="magnify"><defs/><g><!--entity User--><g id="elem_User"><rect fill="#FFFFFF" height="32.2969" rx="2.5" ry="2.5" style="stroke:#000000;stroke-width:2.0;" width="54" x="261" y="11"/><rect fill="#FFFFFF" height="32.2969" rx="2.5" ry="2.5" style="stroke:#000000;stroke-width:2.0;" width="54" x="257" y="7"/><text fill="#000000" font-family="sans-serif" font-size="14" lengthAdjust="spacing" textLength="38" x="265" y="27.9951">USER</text></g><!--entity FileSystem--><g id="elem_FileSystem"><rect fill="#FFFFFF" height="32.2969" rx="2.5" ry="2.5" style="stroke:#000000;stroke-width:2.0;" width="104" x="372" y="364.39"/><rect fill="#FFFFFF" height="32.2969" rx="2.5" ry="2.5" style="stroke:#000000;stroke-width:2.0;" width="104" x="368" y="360.39"/><text fill="#000000" font-family="sans-serif" font-size="14" lengthAdjust="spacing" textLength="88" x="376" y="381.3851">FILE SYSTEM</text></g><!--entity MakeDirs--><g id="elem_MakeDirs"><rect fill="#F1F1F1" height="36.2969" rx="2.5" ry="2.5" style="stroke:#000000;stroke-width:2.0;" width="136" x="406" y="120.3"/><text fill="#000000" font-family="sans-serif" font-size="14" lengthAdjust="spacing" textLength="116" x="416" y="143.2951">Make Directories</text></g><!--entity SplitFiles--><g id="elem_SplitFiles"><rect fill="#F1F1F1" height="36.2969" rx="2.5" ry="2.5" style="stroke:#000000;stroke-width:2.0;" width="84" x="373" y="482.69"/><text fill="#000000" font-family="sans-serif" font-size="14" lengthAdjust="spacing" textLength="64" x="383" y="505.6851">Split Files</text></g><!--entity MoveSAR--><g id="elem_MoveSAR"><rect fill="#F1F1F1" height="36.2969" rx="2.5" ry="2.5" style="stroke:#000000;stroke-width:2.0;" width="124" x="503" y="600.48"/><text fill="#000000" font-family="sans-serif" font-size="14" lengthAdjust="spacing" textLength="104" x="513" y="623.4751">Move SAR Files</text></g><!--entity MoveMasks--><g id="elem_MoveMasks"><rect fill="#F1F1F1" height="36.2969" rx="2.5" ry="2.5" style="stroke:#000000;stroke-width:2.0;" width="132" x="7" y="360.39"/><text fill="#000000" font-family="sans-serif" font-size="14" lengthAdjust="spacing" textLength="112" x="17" y="383.3851">Move Mask Files</text></g><!--entity SARData--><g id="elem_SARData"><path d="M589.5,488.19 C589.5,478.19 631,478.19 631,478.19 C631,478.19 672.5,478.19 672.5,488.19 L672.5,513.4869 C672.5,523.4869 631,523.4869 631,523.4869 C631,523.4869 589.5,523.4869 589.5,513.4869 L589.5,488.19 " fill="#F1F1F1" style="stroke:#181818;stroke-width:0.5;"/><path d="M589.5,488.19 C589.5,498.19 631,498.19 631,498.19 C631,498.19 672.5,498.19 672.5,488.19 " fill="none" style="stroke:#181818;stroke-width:0.5;"/><text fill="#000000" font-family="sans-serif" font-size="14" lengthAdjust="spacing" textLength="63" x="599.5" y="515.1851">SAR Files</text></g><!--entity MaskData--><g id="elem_MaskData"><path d="M241.5,365.89 C241.5,355.89 287,355.89 287,355.89 C287,355.89 332.5,355.89 332.5,365.89 L332.5,391.1869 C332.5,401.1869 287,401.1869 287,401.1869 C287,401.1869 241.5,401.1869 241.5,391.1869 L241.5,365.89 " fill="#F1F1F1" style="stroke:#181818;stroke-width:0.5;"/><path d="M241.5,365.89 C241.5,375.89 287,375.89 287,375.89 C287,375.89 332.5,375.89 332.5,365.89 " fill="none" style="stroke:#181818;stroke-width:0.5;"/><text fill="#000000" font-family="sans-serif" font-size="14" lengthAdjust="spacing" textLength="71" x="251.5" y="392.8851">Mask Files</text></g><!--entity DirStructure--><g id="elem_DirStructure"><path d="M211,243.59 C211,233.59 286,233.59 286,233.59 C286,233.59 361,233.59 361,243.59 L361,268.8869 C361,278.8869 286,278.8869 286,278.8869 C286,278.8869 211,278.8869 211,268.8869 L211,243.59 " fill="#F1F1F1" style="stroke:#181818;stroke-width:0.5;"/><path d="M211,243.59 C211,253.59 286,253.59 286,253.59 C286,253.59 361,253.59 361,243.59 " fill="none" style="stroke:#181818;stroke-width:0.5;"/><text fill="#000000" font-family="sans-serif" font-size="14" lengthAdjust="spacing" textLength="130" x="221" y="270.5851">Directory Structure</text></g><!--link User to MakeDirs--><g id="link_User_MakeDirs"><path d="M315.37,43.54 C350.49,64.32 403.7574,95.8525 439.0474,116.7525 " fill="none" id="User-to-MakeDirs" style="stroke:#181818;stroke-width:1.0;"/><polygon fill="#181818" points="444.21,119.81,438.5045,111.7821,439.9079,117.2621,434.4279,118.6655,444.21,119.81" style="stroke:#181818;stroke-width:1.0;"/><text fill="#000000" font-family="sans-serif" font-size="13" lengthAdjust="spacing" textLength="85" x="393" y="86.3669">Initiate Setup</text></g><!--link MakeDirs to DirStructure--><g id="link_MakeDirs_DirStructure"><path d="M445.45,157.03 C412.37,177.4 362.939,207.8538 327.019,229.9738 " fill="none" id="MakeDirs-to-DirStructure" style="stroke:#181818;stroke-width:1.0;"/><polygon fill="#181818" points="321.91,233.12,331.6709,231.8067,326.1675,230.4982,327.476,224.9948,321.91,233.12" style="stroke:#181818;stroke-width:1.0;"/><text fill="#000000" font-family="sans-serif" font-size="13" lengthAdjust="spacing" textLength="116" x="397" y="199.6569">Create Directories</text></g><!--link FileSystem to SplitFiles--><g id="link_FileSystem_SplitFiles"><path d="M417.73,397.11 C415.54,407.04 413.1,419.73 412,431.19 C410.34,448.52 410.9743,462.4377 412.3143,476.3377 " fill="none" id="FileSystem-to-SplitFiles" style="stroke:#181818;stroke-width:1.0;"/><polygon fill="#181818" points="412.89,482.31,416.0079,472.9677,412.4102,477.3331,408.0448,473.7354,412.89,482.31" style="stroke:#181818;stroke-width:1.0;"/><text fill="#000000" font-family="sans-serif" font-size="13" lengthAdjust="spacing" textLength="79" x="413" y="444.2569">Provide Files</text></g><!--link SplitFiles to SARData--><g id="link_SplitFiles_SARData"><path d="M457.42,500.83 C495.5,500.83 545.1,500.83 583.05,500.83 " fill="none" id="SplitFiles-to-SARData" style="stroke:#181818;stroke-width:1.0;"/><polygon fill="#181818" points="589.05,500.83,580.05,496.83,584.05,500.83,580.05,504.83,589.05,500.83" style="stroke:#181818;stroke-width:1.0;"/><text fill="#000000" font-family="sans-serif" font-size="13" lengthAdjust="spacing" textLength="84" x="481.25" y="493.8969">List SAR Files</text></g><!--link SARData to MoveSAR--><g id="link_SARData_MoveSAR"><path d="M618.43,523.89 C605.79,546.07 589.521,574.6072 577.911,594.9772 " fill="none" id="SARData-to-MoveSAR" style="stroke:#181818;stroke-width:1.0;"/><polygon fill="#181818" points="574.94,600.19,582.8717,594.3516,577.4159,595.846,575.9214,590.3902,574.94,600.19" style="stroke:#181818;stroke-width:1.0;"/><text fill="#000000" font-family="sans-serif" font-size="13" lengthAdjust="spacing" textLength="99" x="600" y="566.5469">Categorize SAR</text></g><!--link MoveSAR to DirStructure--><g id="link_MoveSAR_DirStructure"><path d="M565.05,600.09 C564.28,554.44 556.22,430.3 494,355.89 C460.16,315.42 411.619,292.3367 367.009,277.6467 " fill="none" id="MoveSAR-to-DirStructure" style="stroke:#181818;stroke-width:1.0;"/><polygon fill="#181818" points="361.31,275.77,368.6073,282.3843,366.0591,277.3339,371.1095,274.7857,361.31,275.77" style="stroke:#181818;stroke-width:1.0;"/><text fill="#000000" font-family="sans-serif" font-size="13" lengthAdjust="spacing" textLength="119" x="542" y="444.2569">Organize SAR Files</text></g><!--reverse link MoveMasks to FileSystem--><g id="link_MoveMasks_FileSystem"><path d="M111.543,357.2101 C162.313,331.2701 256.61,292.91 338.5,319.08 C363.59,327.1 387.58,345.72 403.35,360 " fill="none" id="MoveMasks-backto-FileSystem" style="stroke:#181818;stroke-width:1.0;"/><polygon fill="#181818" points="106.2,359.94,116.0344,359.4071,110.6525,357.6651,112.3946,352.2831,106.2,359.94" style="stroke:#181818;stroke-width:1.0;"/><text fill="#000000" font-family="sans-serif" font-size="13" lengthAdjust="spacing" textLength="91" x="246.5" y="321.9569">Provide Masks</text></g><!--reverse link MoveMasks to MaskData--><g id="link_MoveMasks_MaskData"><path d="M145.25,378.54 C178.27,378.54 211.37,378.54 241.06,378.54 " fill="none" id="MoveMasks-backto-MaskData" style="stroke:#181818;stroke-width:1.0;"/><polygon fill="#181818" points="139.25,378.54,148.25,382.54,144.25,378.54,148.25,374.54,139.25,378.54" style="stroke:#181818;stroke-width:1.0;"/><text fill="#000000" font-family="sans-serif" font-size="13" lengthAdjust="spacing" textLength="66" x="157.25" y="371.6069">List Masks</text></g><!--reverse link DirStructure to MoveMasks--><g id="link_DirStructure_MoveMasks"><path d="M204.6756,263.8698 C167.8356,270.1598 131,282.16 101,308.89 C86.11,322.16 78.98,344.53 75.68,360.11 " fill="none" id="DirStructure-backto-MoveMasks" style="stroke:#181818;stroke-width:1.0;"/><polygon fill="#181818" points="210.59,262.86,201.0452,260.4318,205.6613,263.7015,202.3916,268.3177,210.59,262.86" style="stroke:#181818;stroke-width:1.0;"/><text fill="#000000" font-family="sans-serif" font-size="13" lengthAdjust="spacing" textLength="134" x="102" y="321.9569">Align Masks with SAR</text></g><!--reverse link User to DirStructure--><g id="link_User_DirStructure"><path d="M282.1371,49.707 C279.1671,68.577 275.7,93.49 274,120.3 C271.47,160.2 277.59,206.61 281.99,233.3 " fill="none" id="User-backto-DirStructure" style="stroke:#181818;stroke-width:1.0;"/><polygon fill="#181818" points="283.07,43.78,277.7193,52.0486,282.2926,48.7192,285.622,53.2925,283.07,43.78" style="stroke:#181818;stroke-width:1.0;"/><text fill="#000000" font-family="sans-serif" font-size="13" lengthAdjust="spacing" textLength="112" x="275" y="143.0069">Completed Setup</text></g><!--SRC=[bLGzRzim4DtvAmvQEddfsA60apX5W1Wj8cVeI5CdcH1D2kGfYblql_T8VOHoqg4U1F3Tkxjtxm4EhRQTzF8C5TQoDtJ0LzeQtTWpMWB57_H2V89lnXsbWK0NWr0x3nuLITiO328iGnOGVWlWtutp5VfRPxZXQAHgC_Hmqggr609y5d_YYZkijKK87IfTQvNjaegS3o1j1PKaoHNdLtkLCuPNQsV3VsvEA9SRxtfRZVpXf0bJPUkz6qRm9Wr9GdUlR8fbDzWTJPgLvFkV0xBY0CLpkNigLgLxRR2y1C9p8jm_FEwW_5aUTliYpltXdM9LFE_Dns8lMuGx7H7dULSHMoF8s8fOTaPJMZ5oqZizL-FS2qAvVSg84MBa7MilGtj5Yr18MMKnn4YECaG9gxdyYhIiVZsHdrUC-T0BbEHxHRt7H6Ly0PRzjN534CdlJUK6k_cw60DVe7Ym78uaFXUfxmgnr6PoFZGst7gCzDniaKKsjxqP6viuj1TTuNIMo8eRhviJnORHYCX-r84o-yLSMlIFMIGrhALX5RzINYn_AlrB_NVVI3knv_4h-GPhcbQa77Fr2OWMZObyJ4xYP-PIsFJT1shIVyX8Xa7JQRnXnHeRKtpnN7Vk319MKrn_0G00]--></g></svg>