<?xml version="1.0" encoding="us-ascii" standalone="no"?><svg xmlns="http://www.w3.org/2000/svg" xmlns:xlink="http://www.w3.org/1999/xlink" contentStyleType="text/css" height="437px" preserveAspectRatio="none" style="width:982px;height:437px;background:#FFFFFF;" version="1.1" viewBox="0 0 982 437" width="982px" zoomAndPan="magnify"><defs/><g><!--entity User--><g id="elem_User"><rect fill="#FFFFFF" height="32.2969" rx="2.5" ry="2.5" style="stroke:#000000;stroke-width:2.0;" width="54" x="526.5" y="11"/><rect fill="#FFFFFF" height="32.2969" rx="2.5" ry="2.5" style="stroke:#000000;stroke-width:2.0;" width="54" x="522.5" y="7"/><text fill="#000000" font-family="sans-serif" font-size="14" lengthAdjust="spacing" textLength="38" x="530.5" y="27.9951">USER</text></g><!--entity FileSystem--><g id="elem_FileSystem"><rect fill="#FFFFFF" height="32.2969" rx="2.5" ry="2.5" style="stroke:#000000;stroke-width:2.0;" width="104" x="537.5" y="265.89"/><rect fill="#FFFFFF" height="32.2969" rx="2.5" ry="2.5" style="stroke:#000000;stroke-width:2.0;" width="104" x="533.5" y="261.89"/><text fill="#000000" font-family="sans-serif" font-size="14" lengthAdjust="spacing" textLength="88" x="541.5" y="282.8851">FILE SYSTEM</text></g><!--entity CountPixels--><g id="elem_CountPixels"><rect fill="#F1F1F1" height="36.2969" rx="2.5" ry="2.5" style="stroke:#000000;stroke-width:2.0;" width="167" x="7" y="379.68"/><text fill="#000000" font-family="sans-serif" font-size="14" lengthAdjust="spacing" textLength="147" x="17" y="402.6751">Count Pixels in Image</text></g><!--entity CalcPercentage--><g id="elem_CalcPercentage"><rect fill="#F1F1F1" height="36.2969" rx="2.5" ry="2.5" style="stroke:#000000;stroke-width:2.0;" width="167" x="809" y="379.68"/><text fill="#000000" font-family="sans-serif" font-size="14" lengthAdjust="spacing" textLength="147" x="819" y="402.6751">Calculate Percentage</text></g><!--entity CountPixelsMulti--><g id="elem_CountPixelsMulti"><rect fill="#F1F1F1" height="36.2969" rx="2.5" ry="2.5" style="stroke:#000000;stroke-width:2.0;" width="238" x="535.5" y="379.68"/><text fill="#000000" font-family="sans-serif" font-size="14" lengthAdjust="spacing" textLength="218" x="545.5" y="402.6751">Count Pixels for Multiple Images</text></g><!--entity MeasureIncrease--><g id="elem_MeasureIncrease"><rect fill="#F1F1F1" height="36.2969" rx="2.5" ry="2.5" style="stroke:#000000;stroke-width:2.0;" width="242" x="430.5" y="195.59"/><text fill="#000000" font-family="sans-serif" font-size="14" lengthAdjust="spacing" textLength="222" x="440.5" y="218.5851">Measure Increase in Data Points</text></g><!--entity AddCounts--><g id="elem_AddCounts"><rect fill="#F1F1F1" height="36.2969" rx="2.5" ry="2.5" style="stroke:#000000;stroke-width:2.0;" width="205" x="92" y="261.89"/><text fill="#000000" font-family="sans-serif" font-size="14" lengthAdjust="spacing" textLength="185" x="102" y="284.8851">Add Counts of Two Images</text></g><!--entity ImageData--><g id="elem_ImageData"><path d="M288.5,385.18 C288.5,375.18 337.5,375.18 337.5,375.18 C337.5,375.18 386.5,375.18 386.5,385.18 L386.5,410.4769 C386.5,420.4769 337.5,420.4769 337.5,420.4769 C337.5,420.4769 288.5,420.4769 288.5,410.4769 L288.5,385.18 " fill="#F1F1F1" style="stroke:#181818;stroke-width:0.5;"/><path d="M288.5,385.18 C288.5,395.18 337.5,395.18 337.5,395.18 C337.5,395.18 386.5,395.18 386.5,385.18 " fill="none" style="stroke:#181818;stroke-width:0.5;"/><text fill="#000000" font-family="sans-serif" font-size="14" lengthAdjust="spacing" textLength="78" x="298.5" y="412.1751">Image Data</text></g><!--entity ResultsData--><g id="elem_ResultsData"><path d="M497.5,130.29 C497.5,120.29 551.5,120.29 551.5,120.29 C551.5,120.29 605.5,120.29 605.5,130.29 L605.5,155.5869 C605.5,165.5869 551.5,165.5869 551.5,165.5869 C551.5,165.5869 497.5,165.5869 497.5,155.5869 L497.5,130.29 " fill="#F1F1F1" style="stroke:#181818;stroke-width:0.5;"/><path d="M497.5,130.29 C497.5,140.29 551.5,140.29 551.5,140.29 C551.5,140.29 605.5,140.29 605.5,130.29 " fill="none" style="stroke:#181818;stroke-width:0.5;"/><text fill="#000000" font-family="sans-serif" font-size="14" lengthAdjust="spacing" textLength="88" x="507.5" y="157.2851">Results Data</text></g><!--link FileSystem to CountPixels--><g id="link_FileSystem_CountPixels"><path d="M533.37,293.65 C444.43,314.37 273.0334,354.298 171.8234,377.888 " fill="none" id="FileSystem-to-CountPixels" style="stroke:#181818;stroke-width:1.0;"/><polygon fill="#181818" points="165.98,379.25,175.653,381.1026,170.8495,378.115,173.8371,373.3115,165.98,379.25" style="stroke:#181818;stroke-width:1.0;"/><text fill="#000000" font-family="sans-serif" font-size="13" lengthAdjust="spacing" textLength="73" x="385.5" y="341.2469">Image Path</text></g><!--link CountPixels to ImageData--><g id="link_CountPixels_ImageData"><path d="M174.47,397.83 C212.37,397.83 249.82,397.83 282.33,397.83 " fill="none" id="CountPixels-to-ImageData" style="stroke:#181818;stroke-width:1.0;"/><polygon fill="#181818" points="288.33,397.83,279.33,393.83,283.33,397.83,279.33,401.83,288.33,397.83" style="stroke:#181818;stroke-width:1.0;"/><text fill="#000000" font-family="sans-serif" font-size="13" lengthAdjust="spacing" textLength="78" x="192.25" y="390.8969">Pixel Counts</text></g><!--link ImageData to CalcPercentage--><g id="link_ImageData_CalcPercentage"><path d="M386.62,377.52 C423.54,363.4 475.77,345.82 523.5,338.37 C636.82,320.7 763.8589,353.9097 835.1889,377.3097 " fill="none" id="ImageData-to-CalcPercentage" style="stroke:#181818;stroke-width:1.0;"/><polygon fill="#181818" points="840.89,379.18,833.5852,372.5739,836.1391,377.6215,831.0916,380.1753,840.89,379.18" style="stroke:#181818;stroke-width:1.0;"/><text fill="#000000" font-family="sans-serif" font-size="13" lengthAdjust="spacing" textLength="78" x="524.5" y="341.2469">Pixel Counts</text></g><!--link CalcPercentage to ResultsData--><g id="link_CalcPercentage_ResultsData"><path d="M879.16,379.26 C849.2,340.91 772.66,248.85 689.5,195.59 C663.86,179.17 637.9545,168.6887 611.4545,160.2087 " fill="none" id="CalcPercentage-to-ResultsData" style="stroke:#181818;stroke-width:1.0;"/><polygon fill="#181818" points="605.74,158.38,613.0927,164.9327,610.5021,159.9039,615.5309,157.3133,605.74,158.38" style="stroke:#181818;stroke-width:1.0;"/><text fill="#000000" font-family="sans-serif" font-size="13" lengthAdjust="spacing" textLength="123" x="807.5" y="284.5969">Percentage Results</text></g><!--link FileSystem to CountPixelsMulti--><g id="link_FileSystem_CountPixelsMulti"><path d="M597.68,298.62 C610.34,320.51 628.8347,352.4769 641.4447,374.2669 " fill="none" id="FileSystem-to-CountPixelsMulti" style="stroke:#181818;stroke-width:1.0;"/><polygon fill="#181818" points="644.45,379.46,643.4042,369.6668,641.9456,375.1324,636.48,373.6739,644.45,379.46" style="stroke:#181818;stroke-width:1.0;"/><text fill="#000000" font-family="sans-serif" font-size="13" lengthAdjust="spacing" textLength="115" x="623.5" y="341.2469">Paths and Images</text></g><!--reverse link ImageData to CountPixelsMulti--><g id="link_ImageData_CountPixelsMulti"><path d="M392.68,397.83 C432.33,397.83 483.78,397.83 535.31,397.83 " fill="none" id="ImageData-backto-CountPixelsMulti" style="stroke:#181818;stroke-width:1.0;"/><polygon fill="#181818" points="386.68,397.83,395.68,401.83,391.68,397.83,395.68,393.83,386.68,397.83" style="stroke:#181818;stroke-width:1.0;"/><text fill="#000000" font-family="sans-serif" font-size="13" lengthAdjust="spacing" textLength="112" x="405" y="390.8969">Pixel Counts Multi</text></g><!--reverse link MeasureIncrease to ImageData--><g id="link_MeasureIncrease_ImageData"><path d="M428.2403,234.5088 C410.1103,241.3888 398.43,248.77 384.5,261.89 C352.53,291.99 342.3,344.98 339.03,374.81 " fill="none" id="MeasureIncrease-backto-ImageData" style="stroke:#181818;stroke-width:1.0;"/><polygon fill="#181818" points="433.85,232.38,424.0163,231.8334,429.1753,234.154,426.8547,239.3129,433.85,232.38" style="stroke:#181818;stroke-width:1.0;"/><text fill="#000000" font-family="sans-serif" font-size="13" lengthAdjust="spacing" textLength="130" x="385.5" y="284.5969">Pre and Post Counts</text></g><!--reverse link ResultsData to MeasureIncrease--><g id="link_ResultsData_MeasureIncrease"><path d="M551.5,172.09 C551.5,181.51 551.5,186.35 551.5,195.21 " fill="none" id="ResultsData-backto-MeasureIncrease" style="stroke:#181818;stroke-width:1.0;"/><polygon fill="#181818" points="551.5,166.09,547.5,175.09,551.5,171.09,555.5,175.09,551.5,166.09" style="stroke:#181818;stroke-width:1.0;"/></g><!--reverse link AddCounts to FileSystem--><g id="link_AddCounts_FileSystem"><path d="M225.3767,258.3134 C248.9067,242.7734 280.23,225.01 315.5,216.29 C362.96,204.55 377.47,207.18 425.5,216.29 C470.78,224.88 519.6,245.85 551.68,261.41 " fill="none" id="AddCounts-backto-FileSystem" style="stroke:#181818;stroke-width:1.0;"/><polygon fill="#181818" points="220.37,261.62,230.0844,259.9979,224.5422,258.8645,225.6756,253.3224,220.37,261.62" style="stroke:#181818;stroke-width:1.0;"/><text fill="#000000" font-family="sans-serif" font-size="13" lengthAdjust="spacing" textLength="108" x="316.5" y="218.3069">Two Image Paths</text></g><!--reverse link ResultsData to AddCounts--><g id="link_ResultsData_AddCounts"><path d="M491.0201,143.4711 C400.3001,143.9411 230.37,150.74 191.5,195.59 C175.93,213.55 181.54,242.75 187.58,261.41 " fill="none" id="ResultsData-backto-AddCounts" style="stroke:#181818;stroke-width:1.0;"/><polygon fill="#181818" points="497.02,143.44,487.9994,139.4867,492.0201,143.4659,488.0408,147.4866,497.02,143.44" style="stroke:#181818;stroke-width:1.0;"/><text fill="#000000" font-family="sans-serif" font-size="13" lengthAdjust="spacing" textLength="114" x="192.5" y="218.3069">Combined Counts</text></g><!--reverse link User to ResultsData--><g id="link_User_ResultsData"><path d="M551.5,49.73 C551.5,70.1 551.5,97.7 551.5,119.82 " fill="none" id="User-backto-ResultsData" style="stroke:#181818;stroke-width:1.0;"/><polygon fill="#181818" points="551.5,43.73,547.5,52.73,551.5,48.73,555.5,52.73,551.5,43.73" style="stroke:#181818;stroke-width:1.0;"/><text fill="#000000" font-family="sans-serif" font-size="13" lengthAdjust="spacing" textLength="102" x="552.5" y="86.3569">Analysis Results</text></g><!--SRC=[bLHDZzem4BtdLunowObBZprKObcsMgb8qS8UUZJE12mS6taS1LJrltVi98x9gfMM0oBptfitNu4kobo54otKs8XE-mFU_5ghasdHU93yXQueli0FROz20_cxHcYi0uVI2tFII0Mb92a8lmlWpvDrDRgDrImuQY4lMVHmLl9Ya0Y-5d-2nJCsoY3G5QLgbCoyXFJM4GXJGosyOCIw1rzfjMPhPGrzqZb66JuvsvbwuFTdvJ4YQ-TiFmIVOf9OwFR6Gp4y3PwEyeehoVtV2RbYWl9zltqh7w0NfN5_9uzj9Boy_jp2_jV-iDsL8M_bhEIgEDyyntB3TNcer0qrWJBmseeJba4VaG5u40WjEoqyGeKkB33n6PX3__G80z_n9QWhGz6DbdOHpXFiK53dc6wauvyO2dqEcwgiCdxGZvo9ailNTJsa9x0D77gR-p8uOF56ilM7KpW6ipAo8nOLyJ4yPPGt92wQPj8OYBGfSQDjJqMsfLLjUxFwdlSEtoQ_IlXpMUJGogdJsJC_LH3O4HpxAuiPIkp7nNoKBF2fgAo3g9aP8y97bVUIx1QBZ6BkPNZ1niaN7rWhZSr_Unkkvg73xig2nUAZZ6ybc5MMV6fpoPiC5tqcVCslu9tKiirHbSucQD99nQMnOaQ76XSU6ziU-R-eJhKLEM6GnFUSkLCPQUf_0G00]--></g></svg>