<?xml version="1.0" encoding="us-ascii" standalone="no"?><svg xmlns="http://www.w3.org/2000/svg" xmlns:xlink="http://www.w3.org/1999/xlink" contentStyleType="text/css" height="691px" preserveAspectRatio="none" style="width:920px;height:691px;background:#FFFFFF;" version="1.1" viewBox="0 0 920 691" width="920px" zoomAndPan="magnify"><defs/><g><!--entity DumpDirs--><g id="elem_DumpDirs"><rect fill="#FFFFFF" height="32.2969" rx="2.5" ry="2.5" style="stroke:#000000;stroke-width:2.0;" width="137" x="225.5" y="14.5"/><rect fill="#FFFFFF" height="32.2969" rx="2.5" ry="2.5" style="stroke:#000000;stroke-width:2.0;" width="137" x="221.5" y="10.5"/><text fill="#000000" font-family="sans-serif" font-size="14" lengthAdjust="spacing" textLength="121" x="229.5" y="31.4951">Dump Directories</text></g><!--entity User--><g id="elem_User"><rect fill="#FFFFFF" height="32.2969" rx="2.5" ry="2.5" style="stroke:#000000;stroke-width:2.0;" width="48" x="11" y="132.3"/><rect fill="#FFFFFF" height="32.2969" rx="2.5" ry="2.5" style="stroke:#000000;stroke-width:2.0;" width="48" x="7" y="128.3"/><text fill="#000000" font-family="sans-serif" font-size="14" lengthAdjust="spacing" textLength="32" x="15" y="149.2951">User</text></g><!--entity CheckFiles--><g id="elem_CheckFiles"><rect fill="#F1F1F1" height="36.2969" rx="2.5" ry="2.5" style="stroke:#000000;stroke-width:2.0;" width="161" x="211.5" y="128.3"/><text fill="#000000" font-family="sans-serif" font-size="14" lengthAdjust="spacing" textLength="141" x="221.5" y="151.2951">Check File Presence</text></g><!--entity InitiateSplit--><g id="elem_InitiateSplit"><rect fill="#F1F1F1" height="36.2969" rx="2.5" ry="2.5" style="stroke:#000000;stroke-width:2.0;" width="98" x="504" y="128.3"/><text fill="#000000" font-family="sans-serif" font-size="14" lengthAdjust="spacing" textLength="78" x="514" y="151.2951">Initiate Split</text></g><!--entity MoveMasks--><g id="elem_MoveMasks"><rect fill="#F1F1F1" height="36.2969" rx="2.5" ry="2.5" style="stroke:#000000;stroke-width:2.0;" width="105" x="500.5" y="256.59"/><text fill="#000000" font-family="sans-serif" font-size="14" lengthAdjust="spacing" textLength="85" x="510.5" y="279.5851">Move Masks</text></g><!--entity SplitImages--><g id="elem_SplitImages"><rect fill="#F1F1F1" height="36.2969" rx="2.5" ry="2.5" style="stroke:#000000;stroke-width:2.0;" width="103" x="501.5" y="389.39"/><text fill="#000000" font-family="sans-serif" font-size="14" lengthAdjust="spacing" textLength="83" x="511.5" y="412.3851">Split Images</text></g><!--entity DisplayDetails--><g id="elem_DisplayDetails"><rect fill="#F1F1F1" height="36.2969" rx="2.5" ry="2.5" style="stroke:#000000;stroke-width:2.0;" width="178" x="390" y="511.69"/><text fill="#000000" font-family="sans-serif" font-size="14" lengthAdjust="spacing" textLength="158" x="400" y="534.6851">Display Dataset Details</text></g><!--entity ProcessDataset--><g id="elem_ProcessDataset"><rect fill="#F1F1F1" height="36.2969" rx="2.5" ry="2.5" style="stroke:#000000;stroke-width:2.0;" width="134" x="737" y="511.69"/><text fill="#000000" font-family="sans-serif" font-size="14" lengthAdjust="spacing" textLength="114" x="747" y="534.6851">Process Dataset</text></g><!--entity OriginalImages--><g id="elem_OriginalImages"><path d="M397.5,16 C397.5,6 460,6 460,6 C460,6 522.5,6 522.5,16 L522.5,41.2969 C522.5,51.2969 460,51.2969 460,51.2969 C460,51.2969 397.5,51.2969 397.5,41.2969 L397.5,16 " fill="#F1F1F1" style="stroke:#181818;stroke-width:0.5;"/><path d="M397.5,16 C397.5,26 460,26 460,26 C460,26 522.5,26 522.5,16 " fill="none" style="stroke:#181818;stroke-width:0.5;"/><text fill="#000000" font-family="sans-serif" font-size="14" lengthAdjust="spacing" textLength="105" x="407.5" y="42.9951">Original Images</text></g><!--entity SplitImagesStore--><g id="elem_SplitImagesStore"><path d="M752.5,394.89 C752.5,384.89 804,384.89 804,384.89 C804,384.89 855.5,384.89 855.5,394.89 L855.5,420.1869 C855.5,430.1869 804,430.1869 804,430.1869 C804,430.1869 752.5,430.1869 752.5,420.1869 L752.5,394.89 " fill="#F1F1F1" style="stroke:#181818;stroke-width:0.5;"/><path d="M752.5,394.89 C752.5,404.89 804,404.89 804,404.89 C804,404.89 855.5,404.89 855.5,394.89 " fill="none" style="stroke:#181818;stroke-width:0.5;"/><text fill="#000000" font-family="sans-serif" font-size="14" lengthAdjust="spacing" textLength="83" x="762.5" y="421.8851">Split Images</text></g><!--entity MaskFiles--><g id="elem_MaskFiles"><path d="M557.5,16 C557.5,6 603,6 603,6 C603,6 648.5,6 648.5,16 L648.5,41.2969 C648.5,51.2969 603,51.2969 603,51.2969 C603,51.2969 557.5,51.2969 557.5,41.2969 L557.5,16 " fill="#F1F1F1" style="stroke:#181818;stroke-width:0.5;"/><path d="M557.5,16 C557.5,26 603,26 603,26 C603,26 648.5,26 648.5,16 " fill="none" style="stroke:#181818;stroke-width:0.5;"/><text fill="#000000" font-family="sans-serif" font-size="14" lengthAdjust="spacing" textLength="71" x="567.5" y="42.9951">Mask Files</text></g><!--entity TrainingData--><g id="elem_TrainingData"><path d="M144.5,517.19 C144.5,507.19 200,507.19 200,507.19 C200,507.19 255.5,507.19 255.5,517.19 L255.5,542.4869 C255.5,552.4869 200,552.4869 200,552.4869 C200,552.4869 144.5,552.4869 144.5,542.4869 L144.5,517.19 " fill="#F1F1F1" style="stroke:#181818;stroke-width:0.5;"/><path d="M144.5,517.19 C144.5,527.19 200,527.19 200,527.19 C200,527.19 255.5,527.19 255.5,517.19 " fill="none" style="stroke:#181818;stroke-width:0.5;"/><text fill="#000000" font-family="sans-serif" font-size="14" lengthAdjust="spacing" textLength="91" x="154.5" y="544.1851">Training Data</text></g><!--entity ValidationData--><g id="elem_ValidationData"><path d="M342,639.48 C342,629.48 403,629.48 403,629.48 C403,629.48 464,629.48 464,639.48 L464,664.7769 C464,674.7769 403,674.7769 403,674.7769 C403,674.7769 342,674.7769 342,664.7769 L342,639.48 " fill="#F1F1F1" style="stroke:#181818;stroke-width:0.5;"/><path d="M342,639.48 C342,649.48 403,649.48 403,649.48 C403,649.48 464,649.48 464,639.48 " fill="none" style="stroke:#181818;stroke-width:0.5;"/><text fill="#000000" font-family="sans-serif" font-size="14" lengthAdjust="spacing" textLength="102" x="352" y="666.4751">Validation Data</text></g><!--entity TestingData--><g id="elem_TestingData"><path d="M502,639.48 C502,629.48 556,629.48 556,629.48 C556,629.48 610,629.48 610,639.48 L610,664.7769 C610,674.7769 556,674.7769 556,674.7769 C556,674.7769 502,674.7769 502,664.7769 L502,639.48 " fill="#F1F1F1" style="stroke:#181818;stroke-width:0.5;"/><path d="M502,639.48 C502,649.48 556,649.48 556,649.48 C556,649.48 610,649.48 610,639.48 " fill="none" style="stroke:#181818;stroke-width:0.5;"/><text fill="#000000" font-family="sans-serif" font-size="14" lengthAdjust="spacing" textLength="88" x="512" y="666.4751">Testing Data</text></g><!--link DumpDirs to CheckFiles--><g id="link_DumpDirs_CheckFiles"><path d="M292,47.23 C292,69.13 292,100.28 292,122.07 " fill="none" id="DumpDirs-to-CheckFiles" style="stroke:#181818;stroke-width:1.0;"/><polygon fill="#181818" points="292,128.07,296,119.07,292,123.07,288,119.07,292,128.07" style="stroke:#181818;stroke-width:1.0;"/><text fill="#000000" font-family="sans-serif" font-size="13" lengthAdjust="spacing" textLength="123" x="293" y="94.3669">SAR and Mask Files</text></g><!--link CheckFiles to InitiateSplit--><g id="link_CheckFiles_InitiateSplit"><path d="M372.79,146.44 C415.61,146.44 460.82,146.44 497.69,146.44 " fill="none" id="CheckFiles-to-InitiateSplit" style="stroke:#181818;stroke-width:1.0;"/><polygon fill="#181818" points="503.69,146.44,494.69,142.44,498.69,146.44,494.69,150.44,503.69,146.44" style="stroke:#181818;stroke-width:1.0;"/><text fill="#000000" font-family="sans-serif" font-size="13" lengthAdjust="spacing" textLength="54" x="411.25" y="124.5069">Files List</text><text fill="#000000" font-family="sans-serif" font-size="13" lengthAdjust="spacing" textLength="95" x="390.75" y="139.6397">(SAR &amp; Masks)</text></g><!--link InitiateSplit to MoveMasks--><g id="link_InitiateSplit_MoveMasks"><path d="M553,165.01 C553,189.13 553,226.28 553,250.33 " fill="none" id="InitiateSplit-to-MoveMasks" style="stroke:#181818;stroke-width:1.0;"/><polygon fill="#181818" points="553,256.33,557,247.33,553,251.33,549,247.33,553,256.33" style="stroke:#181818;stroke-width:1.0;"/><text fill="#000000" font-family="sans-serif" font-size="13" lengthAdjust="spacing" textLength="60" x="616.5" y="207.6569">Split Files</text><text fill="#000000" font-family="sans-serif" font-size="13" lengthAdjust="spacing" textLength="185" x="554" y="222.7897">(Training, Validation, Testing)</text></g><!--link MoveMasks to SplitImages--><g id="link_MoveMasks_SplitImages"><path d="M553,293.38 C553,318.48 553,358.23 553,383.18 " fill="none" id="MoveMasks-to-SplitImages" style="stroke:#181818;stroke-width:1.0;"/><polygon fill="#181818" points="553,389.18,557,380.18,553,384.18,549,380.18,553,389.18" style="stroke:#181818;stroke-width:1.0;"/><text fill="#000000" font-family="sans-serif" font-size="13" lengthAdjust="spacing" textLength="56" x="573.5" y="335.9569">File Pairs</text><text fill="#000000" font-family="sans-serif" font-size="13" lengthAdjust="spacing" textLength="95" x="554" y="351.0897">(SAR &amp; Masks)</text></g><!--link User to CheckFiles--><g id="link_User_CheckFiles"><path d="M59.26,146.44 C94.56,146.44 152.91,146.44 205.01,146.44 " fill="none" id="User-to-CheckFiles" style="stroke:#181818;stroke-width:1.0;"/><polygon fill="#181818" points="211.01,146.44,202.01,142.44,206.01,146.44,202.01,150.44,211.01,146.44" style="stroke:#181818;stroke-width:1.0;"/><text fill="#000000" font-family="sans-serif" font-size="13" lengthAdjust="spacing" textLength="116" x="77.25" y="139.5069">User Confirmation</text></g><!--link SplitImages to SplitImagesStore--><g id="link_SplitImages_SplitImagesStore"><path d="M604.7,407.54 C647.9,407.54 703.19,407.54 746.36,407.54 " fill="none" id="SplitImages-to-SplitImagesStore" style="stroke:#181818;stroke-width:1.0;"/><polygon fill="#181818" points="752.36,407.54,743.36,403.54,747.36,407.54,743.36,411.54,752.36,407.54" style="stroke:#181818;stroke-width:1.0;"/><text fill="#000000" font-family="sans-serif" font-size="13" lengthAdjust="spacing" textLength="111" x="623" y="400.6069">Quadrant Images</text></g><!--link SplitImagesStore to ProcessDataset--><g id="link_SplitImagesStore_ProcessDataset"><path d="M804,430.6 C804,453.8 804,483.84 804,505.21 " fill="none" id="SplitImagesStore-to-ProcessDataset" style="stroke:#181818;stroke-width:1.0;"/><polygon fill="#181818" points="804,511.21,808,502.21,804,506.21,800,502.21,804,511.21" style="stroke:#181818;stroke-width:1.0;"/><text fill="#000000" font-family="sans-serif" font-size="13" lengthAdjust="spacing" textLength="107" x="805" y="473.2569">Split Image Data</text></g><!--reverse link DisplayDetails to ProcessDataset--><g id="link_DisplayDetails_ProcessDataset"><path d="M574.24,529.83 C627.42,529.83 687.84,529.83 736.61,529.83 " fill="none" id="DisplayDetails-backto-ProcessDataset" style="stroke:#181818;stroke-width:1.0;"/><polygon fill="#181818" points="568.24,529.83,577.24,533.83,573.24,529.83,577.24,525.83,568.24,529.83" style="stroke:#181818;stroke-width:1.0;"/><text fill="#000000" font-family="sans-serif" font-size="13" lengthAdjust="spacing" textLength="133" x="586" y="522.8969">Dataset Path &amp; Type</text></g><!--reverse link TrainingData to DisplayDetails--><g id="link_TrainingData_DisplayDetails"><path d="M261.79,529.83 C300.03,529.83 345.6,529.83 389.53,529.83 " fill="none" id="TrainingData-backto-DisplayDetails" style="stroke:#181818;stroke-width:1.0;"/><polygon fill="#181818" points="255.79,529.83,264.79,533.83,260.79,529.83,264.79,525.83,255.79,529.83" style="stroke:#181818;stroke-width:1.0;"/><text fill="#000000" font-family="sans-serif" font-size="13" lengthAdjust="spacing" textLength="98" x="273.75" y="522.8969">Training Details</text></g><!--link DisplayDetails to ValidationData--><g id="link_DisplayDetails_ValidationData"><path d="M436.26,548.46 C422.11,556.6 407.95,567.78 400,582.48 C392.34,596.65 392.3854,609.0822 395.2854,623.2322 " fill="none" id="DisplayDetails-to-ValidationData" style="stroke:#181818;stroke-width:1.0;"/><polygon fill="#181818" points="396.49,629.11,398.6016,619.4902,395.4861,624.2118,390.7645,621.0964,396.49,629.11" style="stroke:#181818;stroke-width:1.0;"/><text fill="#000000" font-family="sans-serif" font-size="13" lengthAdjust="spacing" textLength="111" x="401" y="595.5469">Validation Details</text></g><!--link DisplayDetails to TestingData--><g id="link_DisplayDetails_TestingData"><path d="M492.54,548.16 C500.04,558.02 509.37,570.72 517,582.48 C526.85,597.66 534.0431,610.1692 541.4731,623.8292 " fill="none" id="DisplayDetails-to-TestingData" style="stroke:#181818;stroke-width:1.0;"/><polygon fill="#181818" points="544.34,629.1,543.5535,619.2826,541.9509,624.7077,536.5258,623.1051,544.34,629.1" style="stroke:#181818;stroke-width:1.0;"/><text fill="#000000" font-family="sans-serif" font-size="13" lengthAdjust="spacing" textLength="94" x="529" y="595.5469">Testing Details</text></g><!--SRC=[bLDDZzCm4BtxLunoM43QNZXoGEgsksYbNL7OmecBwqnIgwuTsIxT2l7V6K_Yncab43rKyPltvilFOQTj9xtSGusDF9YunjSuDxgrUxGH5FsX5-8DV39k8ms4U388ZVFWKKLfMuD1X7EICmY_1D3lplaQ_S8P4coCLBi2NM-rsbaC0TwBtwd44Xjj4KA7IZTQ5RMaYiu7aBQ6MaP94USdTPKpXafhPyD_LcQKmgrt1rlt_EDMH-J8t7jtxC4xJiADth_IKYnjuzv67JLrKjQlbeTz1qkTTk4yHIkG0H98s0NrMq3FuVIHKg-yKzGOfHnNMIssg7RmeEbxHNEZLSWYnXCyOJzQwab6X9VEwCZ4335ISf_TJuHd6NPza-d8fvB38dZSotOOXO7-NFAMEdH6dc19DnGmqdL6gSqmVHyRe58r39nLp1wm0M9hf5j_wMyzEM130QW-UztgT0z5SnaR-Xl9Vnk3CnVSj0FUzx0MElPh7YbhBxNLjkNMc9MH11J4xz9eEj5zZzGHko2lCSHfqXvWMjx3Wt778BAXO5QxevrzBDm07sZS-LT-ByKeec3CQ4tRIAg9DPAmZp_f47_OjodBJM-GTvMOSdFTiscuB8Su1ydpIcwBYM_pJ9HmbEPanQNaPc0bQSohPjAB6SUO3i-nXREDzdikMeaoyLbrQO6a_NAGjPVsR1LnHSgzJcqwJi_S_Wh51MTci4c5f-yXIJDZ9UEMfboVEgp41IshIwSbxUZ5uSbT2OUEfxvBqjAT_n0NLkIYsQg3x0y0]--></g></svg>