<?xml version="1.0" encoding="us-ascii" standalone="no"?><svg xmlns="http://www.w3.org/2000/svg" xmlns:xlink="http://www.w3.org/1999/xlink" contentStyleType="text/css" height="547px" preserveAspectRatio="none" style="width:1272px;height:547px;background:#FFFFFF;" version="1.1" viewBox="0 0 1272 547" width="1272px" zoomAndPan="magnify"><defs/><g><!--entity User--><g id="elem_User"><rect fill="#FFFFFF" height="32.2969" rx="2.5" ry="2.5" style="stroke:#000000;stroke-width:2.0;" width="54" x="630" y="250.09"/><rect fill="#FFFFFF" height="32.2969" rx="2.5" ry="2.5" style="stroke:#000000;stroke-width:2.0;" width="54" x="626" y="246.09"/><text fill="#000000" font-family="sans-serif" font-size="14" lengthAdjust="spacing" textLength="38" x="634" y="267.0851">USER</text></g><!--entity FileSystem--><g id="elem_FileSystem"><rect fill="#FFFFFF" height="32.2969" rx="2.5" ry="2.5" style="stroke:#000000;stroke-width:2.0;" width="104" x="1000" y="391.69"/><rect fill="#FFFFFF" height="32.2969" rx="2.5" ry="2.5" style="stroke:#000000;stroke-width:2.0;" width="104" x="996" y="387.69"/><text fill="#000000" font-family="sans-serif" font-size="14" lengthAdjust="spacing" textLength="88" x="1004" y="408.6851">FILE SYSTEM</text></g><!--entity ClearDirs--><g id="elem_ClearDirs"><rect fill="#F1F1F1" height="36.2969" rx="2.5" ry="2.5" style="stroke:#000000;stroke-width:2.0;" width="134" x="7" y="387.69"/><text fill="#000000" font-family="sans-serif" font-size="14" lengthAdjust="spacing" textLength="114" x="17" y="410.6851">Clear Directories</text></g><!--entity SplitImages--><g id="elem_SplitImages"><rect fill="#F1F1F1" height="36.2969" rx="2.5" ry="2.5" style="stroke:#000000;stroke-width:2.0;" width="209" x="550.5" y="316.89"/><text fill="#000000" font-family="sans-serif" font-size="14" lengthAdjust="spacing" textLength="189" x="560.5" y="339.8851">Split Images into Quadrants</text></g><!--entity ExpandDataset--><g id="elem_ExpandDataset"><rect fill="#F1F1F1" height="36.2969" rx="2.5" ry="2.5" style="stroke:#000000;stroke-width:2.0;" width="129" x="565.5" y="505.48"/><text fill="#000000" font-family="sans-serif" font-size="14" lengthAdjust="spacing" textLength="109" x="575.5" y="528.4751">Expand Dataset</text></g><!--entity FilterDataset--><g id="elem_FilterDataset"><rect fill="#F1F1F1" height="36.2969" rx="2.5" ry="2.5" style="stroke:#000000;stroke-width:2.0;" width="111" x="414.5" y="246.09"/><text fill="#000000" font-family="sans-serif" font-size="14" lengthAdjust="spacing" textLength="91" x="424.5" y="269.0851">Filter Dataset</text></g><!--entity AnalyzeDistribution--><g id="elem_AnalyzeDistribution"><rect fill="#F1F1F1" height="36.2969" rx="2.5" ry="2.5" style="stroke:#000000;stroke-width:2.0;" width="192" x="355" y="128.3"/><text fill="#000000" font-family="sans-serif" font-size="14" lengthAdjust="spacing" textLength="172" x="365" y="151.2951">Analyze Data Distribution</text></g><!--entity MoveMatchFiles--><g id="elem_MoveMatchFiles"><rect fill="#F1F1F1" height="36.2969" rx="2.5" ry="2.5" style="stroke:#000000;stroke-width:2.0;" width="168" x="717" y="387.69"/><text fill="#000000" font-family="sans-serif" font-size="14" lengthAdjust="spacing" textLength="148" x="727" y="410.6851">Move and Match Files</text></g><!--entity OrigImages--><g id="elem_OrigImages"><path d="M298.5,393.19 C298.5,383.19 361,383.19 361,383.19 C361,383.19 423.5,383.19 423.5,393.19 L423.5,418.4869 C423.5,428.4869 361,428.4869 361,428.4869 C361,428.4869 298.5,428.4869 298.5,418.4869 L298.5,393.19 " fill="#F1F1F1" style="stroke:#181818;stroke-width:0.5;"/><path d="M298.5,393.19 C298.5,403.19 361,403.19 361,403.19 C361,403.19 423.5,403.19 423.5,393.19 " fill="none" style="stroke:#181818;stroke-width:0.5;"/><text fill="#000000" font-family="sans-serif" font-size="14" lengthAdjust="spacing" textLength="105" x="308.5" y="420.1851">Original Images</text></g><!--entity SplitImgs--><g id="elem_SplitImgs"><path d="M578.5,393.19 C578.5,383.19 630,383.19 630,383.19 C630,383.19 681.5,383.19 681.5,393.19 L681.5,418.4869 C681.5,428.4869 630,428.4869 630,428.4869 C630,428.4869 578.5,428.4869 578.5,418.4869 L578.5,393.19 " fill="#F1F1F1" style="stroke:#181818;stroke-width:0.5;"/><path d="M578.5,393.19 C578.5,403.19 630,403.19 630,403.19 C630,403.19 681.5,403.19 681.5,393.19 " fill="none" style="stroke:#181818;stroke-width:0.5;"/><text fill="#000000" font-family="sans-serif" font-size="14" lengthAdjust="spacing" textLength="83" x="588.5" y="420.1851">Split Images</text></g><!--entity FilteredData--><g id="elem_FilteredData"><path d="M193.5,251.59 C193.5,241.59 247,241.59 247,241.59 C247,241.59 300.5,241.59 300.5,251.59 L300.5,276.8869 C300.5,286.8869 247,286.8869 247,286.8869 C247,286.8869 193.5,286.8869 193.5,276.8869 L193.5,251.59 " fill="#F1F1F1" style="stroke:#181818;stroke-width:0.5;"/><path d="M193.5,251.59 C193.5,261.59 247,261.59 247,261.59 C247,261.59 300.5,261.59 300.5,251.59 " fill="none" style="stroke:#181818;stroke-width:0.5;"/><text fill="#000000" font-family="sans-serif" font-size="14" lengthAdjust="spacing" textLength="87" x="203.5" y="278.5851">Filtered Data</text></g><!--entity AnalysisResults--><g id="elem_AnalysisResults"><path d="M385.5,16 C385.5,6 451,6 451,6 C451,6 516.5,6 516.5,16 L516.5,41.2969 C516.5,51.2969 451,51.2969 451,51.2969 C451,51.2969 385.5,51.2969 385.5,41.2969 L385.5,16 " fill="#F1F1F1" style="stroke:#181818;stroke-width:0.5;"/><path d="M385.5,16 C385.5,26 451,26 451,26 C451,26 516.5,26 516.5,16 " fill="none" style="stroke:#181818;stroke-width:0.5;"/><text fill="#000000" font-family="sans-serif" font-size="14" lengthAdjust="spacing" textLength="111" x="395.5" y="42.9951">Analysis Results</text></g><!--link User to ClearDirs--><g id="link_User_ClearDirs"><path d="M625.61,271.43 C603.07,276.05 571.15,282.33 543,286.89 C441.67,303.3 413.69,292.41 314,316.89 C241.38,334.72 165.8945,364.8156 119.0145,384.9156 " fill="none" id="User-to-ClearDirs" style="stroke:#181818;stroke-width:1.0;"/><polygon fill="#181818" points="113.5,387.28,123.348,387.4098,118.0954,385.3097,120.1955,380.0571,113.5,387.28" style="stroke:#181818;stroke-width:1.0;"/><text fill="#000000" font-family="sans-serif" font-size="13" lengthAdjust="spacing" textLength="99" x="315" y="339.6069">Initiate Cleanup</text></g><!--link ClearDirs to OrigImages--><g id="link_ClearDirs_OrigImages"><path d="M141.29,405.83 C188.67,405.83 245.68,405.83 292.06,405.83 " fill="none" id="ClearDirs-to-OrigImages" style="stroke:#181818;stroke-width:1.0;"/><polygon fill="#181818" points="298.06,405.83,289.06,401.83,293.06,405.83,289.06,409.83,298.06,405.83" style="stroke:#181818;stroke-width:1.0;"/><text fill="#000000" font-family="sans-serif" font-size="13" lengthAdjust="spacing" textLength="121" x="159.25" y="398.8969">Remove Extra Files</text></g><!--link User to SplitImages--><g id="link_User_SplitImages"><path d="M655,282.6 C655,292.95 655,300.05 655,310.44 " fill="none" id="User-to-SplitImages" style="stroke:#181818;stroke-width:1.0;"/><polygon fill="#181818" points="655,316.44,659,307.44,655,311.44,651,307.44,655,316.44" style="stroke:#181818;stroke-width:1.0;"/></g><!--link SplitImages to OrigImages--><g id="link_SplitImages_OrigImages"><path d="M579.67,353.67 C531.35,364.97 475.2022,378.1129 429.5622,388.7929 " fill="none" id="SplitImages-to-OrigImages" style="stroke:#181818;stroke-width:1.0;"/><polygon fill="#181818" points="423.72,390.16,433.3947,392.0041,428.5885,389.0207,431.5719,384.2146,423.72,390.16" style="stroke:#181818;stroke-width:1.0;"/></g><!--link OrigImages to SplitImgs--><g id="link_OrigImages_SplitImgs"><path d="M423.73,405.83 C470.61,405.83 527.95,405.83 572.03,405.83 " fill="none" id="OrigImages-to-SplitImgs" style="stroke:#181818;stroke-width:1.0;"/><polygon fill="#181818" points="578.03,405.83,569.03,401.83,573.03,405.83,569.03,409.83,578.03,405.83" style="stroke:#181818;stroke-width:1.0;"/><text fill="#000000" font-family="sans-serif" font-size="13" lengthAdjust="spacing" textLength="118" x="442" y="398.8969">Store Split Images</text></g><!--link User to ExpandDataset--><g id="link_User_ExpandDataset"><path d="M684.36,265.34 C804.07,266.72 1243.36,281.7 1122,428.48 C1068.46,493.25 821.382,513.5711 700.532,519.8011 " fill="none" id="User-to-ExpandDataset" style="stroke:#181818;stroke-width:1.0;"/><polygon fill="#181818" points="694.54,520.11,703.734,523.6413,699.5334,519.8526,703.3221,515.652,694.54,520.11" style="stroke:#181818;stroke-width:1.0;"/><text fill="#000000" font-family="sans-serif" font-size="13" lengthAdjust="spacing" textLength="121" x="1143" y="410.3969">Request Expansion</text></g><!--link SplitImgs to ExpandDataset--><g id="link_SplitImgs_ExpandDataset"><path d="M630,428.89 C630,451.07 630,478.82 630,499.19 " fill="none" id="SplitImgs-to-ExpandDataset" style="stroke:#181818;stroke-width:1.0;"/><polygon fill="#181818" points="630,505.19,634,496.19,630,500.19,626,496.19,630,505.19" style="stroke:#181818;stroke-width:1.0;"/><text fill="#000000" font-family="sans-serif" font-size="13" lengthAdjust="spacing" textLength="118" x="631" y="471.5469">Fetch Split Images</text></g><!--link ExpandDataset to OrigImages--><g id="link_ExpandDataset_OrigImages"><path d="M565.22,510.06 C532.71,502.42 493.28,491.09 460,475.48 C433.49,463.05 411.0925,447.391 391.9525,432.391 " fill="none" id="ExpandDataset-to-OrigImages" style="stroke:#181818;stroke-width:1.0;"/><polygon fill="#181818" points="387.23,428.69,391.8464,437.3899,391.1654,431.7742,396.7812,431.0932,387.23,428.69" style="stroke:#181818;stroke-width:1.0;"/><text fill="#000000" font-family="sans-serif" font-size="13" lengthAdjust="spacing" textLength="160" x="461" y="471.5469">Return Expanded Images</text></g><!--reverse link FilterDataset to User--><g id="link_FilterDataset_User"><path d="M531.76,264.24 C564.63,264.24 598.9,264.24 625.66,264.24 " fill="none" id="FilterDataset-backto-User" style="stroke:#181818;stroke-width:1.0;"/><polygon fill="#181818" points="525.76,264.24,534.76,268.24,530.76,264.24,534.76,260.24,525.76,264.24" style="stroke:#181818;stroke-width:1.0;"/><text fill="#000000" font-family="sans-serif" font-size="13" lengthAdjust="spacing" textLength="64" x="543.75" y="257.3069">Set Filters</text></g><!--reverse link FilteredData to FilterDataset--><g id="link_FilteredData_FilterDataset"><path d="M306.98,264.24 C341.27,264.24 379.55,264.24 414.19,264.24 " fill="none" id="FilteredData-backto-FilterDataset" style="stroke:#181818;stroke-width:1.0;"/><polygon fill="#181818" points="300.98,264.24,309.98,268.24,305.98,264.24,309.98,260.24,300.98,264.24" style="stroke:#181818;stroke-width:1.0;"/><text fill="#000000" font-family="sans-serif" font-size="13" lengthAdjust="spacing" textLength="77" x="319" y="257.3069">Apply Filters</text></g><!--reverse link AnalyzeDistribution to User--><g id="link_AnalyzeDistribution_User"><path d="M487.1976,167.9926 C526.2076,190.1426 587.52,224.94 625.71,246.62 " fill="none" id="AnalyzeDistribution-backto-User" style="stroke:#181818;stroke-width:1.0;"/><polygon fill="#181818" points="481.98,165.03,487.8313,172.9522,486.328,167.4988,491.7814,165.9955,481.98,165.03" style="stroke:#181818;stroke-width:1.0;"/><text fill="#000000" font-family="sans-serif" font-size="13" lengthAdjust="spacing" textLength="108" x="560" y="207.6569">Request Analysis</text></g><!--reverse link AnalyzeDistribution to FilteredData--><g id="link_AnalyzeDistribution_FilteredData"><path d="M414.8019,167.9916 C378.9119,188.3616 324.95,219 285.97,241.12 " fill="none" id="AnalyzeDistribution-backto-FilteredData" style="stroke:#181818;stroke-width:1.0;"/><polygon fill="#181818" points="420.02,165.03,410.2184,165.9937,415.6716,167.498,414.1672,172.9512,420.02,165.03" style="stroke:#181818;stroke-width:1.0;"/><text fill="#000000" font-family="sans-serif" font-size="13" lengthAdjust="spacing" textLength="70" x="369" y="207.6569">Fetch Data</text></g><!--reverse link AnalysisResults to AnalyzeDistribution--><g id="link_AnalysisResults_AnalyzeDistribution"><path d="M451,57.7 C451,79.88 451,107.63 451,128.01 " fill="none" id="AnalysisResults-backto-AnalyzeDistribution" style="stroke:#181818;stroke-width:1.0;"/><polygon fill="#181818" points="451,51.7,447,60.7,451,56.7,455,60.7,451,51.7" style="stroke:#181818;stroke-width:1.0;"/><text fill="#000000" font-family="sans-serif" font-size="13" lengthAdjust="spacing" textLength="96" x="452" y="94.3669">Display Results</text></g><!--reverse link MoveMatchFiles to FileSystem--><g id="link_MoveMatchFiles_FileSystem"><path d="M891.3,405.83 C927.84,405.83 963.56,405.83 995.87,405.83 " fill="none" id="MoveMatchFiles-backto-FileSystem" style="stroke:#181818;stroke-width:1.0;"/><polygon fill="#181818" points="885.3,405.83,894.3,409.83,890.3,405.83,894.3,401.83,885.3,405.83" style="stroke:#181818;stroke-width:1.0;"/><text fill="#000000" font-family="sans-serif" font-size="13" lengthAdjust="spacing" textLength="75" x="903" y="398.8969">Supply Files</text></g><!--reverse link OrigImages to MoveMatchFiles--><g id="link_OrigImages_MoveMatchFiles"><path d="M378.0293,378.0658 C388.8993,362.2558 402.31,347.42 423,338.34 C472.64,316.53 491.23,331.37 545,338.34 C616.11,347.55 695.62,370.6 746.88,387.2 " fill="none" id="OrigImages-backto-MoveMatchFiles" style="stroke:#181818;stroke-width:1.0;"/><polygon fill="#181818" points="374.63,383.01,383.0251,377.86,377.4628,378.8899,376.4329,373.3276,374.63,383.01" style="stroke:#181818;stroke-width:1.0;"/><text fill="#000000" font-family="sans-serif" font-size="13" lengthAdjust="spacing" textLength="120" x="424" y="339.6069">Organize and Align</text></g><!--SRC=[bLN1Zjem4BtxAwnSUkBIOm-Ls0KgfA9j2NleqIIJO67ir7OARDL_xtYS41knbSfXaTwyvvdtF6RTKUfEM77YDJIYLtu75pzNijKdq9vN-0SiOn_u5sNsGd7dhmfuOootK7cXMmMEkTiXDv3_PXm_JyRMO9-DGi5UYUgOeBk3h8uQdECVsP_GOW6DrC1T1vLiP9Nq4fKtrd6XQruBBx1YRDQtCafXQscq-y_EX6AvjQRNTUIV3z83LURMcdC4d-WG6dHvmL0qfe7fI2znahJ_gmESsF7YjLnkYwoqaWhAg_Dm8i9g_NN9on_bRhafmhdVhAbmAZnloh5uLY0iNyW06OlDYg0b5C6CMdPAUhu-YHOSbzeR_hqNjHNQHn7LOpcLBIzTI7Q1oJhmn8pGWAHST83UCsw47d3d6D7r3OYC1fotSj-784WsL5Cy5M_CBw0BtmXV7IYvQ28K22E8zYPPYR0UUno45ozMjZ9SKZHCse0D_YTYcbeQKvkIeac8AIMsWK9AY6JBISUtuF0vkSahWWDs6xfHvkmOBSoiDcSz-pnTBF_4YxN6zH8U2DLzLx2fF4Cl1u-AoLIGRE4KaiCLjM98RMWmyfCjY8AVFJWVOIzrMx2KyKwR5OHR6JF67advlbDBYZ9S4C_2pfrdEvTEHWKNzePD9xwhYfFbVNBIABqFplTM3-VXHUSpAcY2espNoHL-HH2fUJNNn4K9addNgUiaYkVt7J8VF8aqXt6BnaR3aV_KnZHeQTaZIYAUzZC8aTKfSRsjCKj-kqPd-LEaEFhHN8ZkhZxAyjnVR2kqV8kFdVxp57y1]--></g></svg>