<?xml version="1.0" encoding="us-ascii" standalone="no"?><svg xmlns="http://www.w3.org/2000/svg" xmlns:xlink="http://www.w3.org/1999/xlink" contentStyleType="text/css" height="332px" preserveAspectRatio="none" style="width:1122px;height:332px;background:#FFFFFF;" version="1.1" viewBox="0 0 1122 332" width="1122px" zoomAndPan="magnify"><defs/><g><!--entity User--><g id="elem_User"><rect fill="#FFFFFF" height="32.2969" rx="2.5" ry="2.5" style="stroke:#000000;stroke-width:2.0;" width="54" x="354" y="14.5"/><rect fill="#FFFFFF" height="32.2969" rx="2.5" ry="2.5" style="stroke:#000000;stroke-width:2.0;" width="54" x="350" y="10.5"/><text fill="#000000" font-family="sans-serif" font-size="14" lengthAdjust="spacing" textLength="38" x="358" y="31.4951">USER</text></g><!--entity FileSystem--><g id="elem_FileSystem"><rect fill="#FFFFFF" height="32.2969" rx="2.5" ry="2.5" style="stroke:#000000;stroke-width:2.0;" width="104" x="596" y="14.5"/><rect fill="#FFFFFF" height="32.2969" rx="2.5" ry="2.5" style="stroke:#000000;stroke-width:2.0;" width="104" x="592" y="10.5"/><text fill="#000000" font-family="sans-serif" font-size="14" lengthAdjust="spacing" textLength="88" x="600" y="31.4951">FILE SYSTEM</text></g><!--entity InitiateFilter--><g id="elem_InitiateFilter"><rect fill="#F1F1F1" height="36.2969" rx="2.5" ry="2.5" style="stroke:#000000;stroke-width:2.0;" width="102" x="7" y="152.1"/><text fill="#000000" font-family="sans-serif" font-size="14" lengthAdjust="spacing" textLength="82" x="17" y="175.0951">Initiate Filter</text></g><!--entity FilterDataset--><g id="elem_FilterDataset"><rect fill="#F1F1F1" height="36.2969" rx="2.5" ry="2.5" style="stroke:#000000;stroke-width:2.0;" width="111" x="834.5" y="10.5"/><text fill="#000000" font-family="sans-serif" font-size="14" lengthAdjust="spacing" textLength="91" x="844.5" y="33.4951">Filter Dataset</text></g><!--entity MakeDirs--><g id="elem_MakeDirs"><rect fill="#F1F1F1" height="36.2969" rx="2.5" ry="2.5" style="stroke:#000000;stroke-width:2.0;" width="191" x="261.5" y="152.1"/><text fill="#000000" font-family="sans-serif" font-size="14" lengthAdjust="spacing" textLength="171" x="271.5" y="175.0951">Make Filtered Directories</text></g><!--entity MoveSAR--><g id="elem_MoveSAR"><rect fill="#F1F1F1" height="36.2969" rx="2.5" ry="2.5" style="stroke:#000000;stroke-width:2.0;" width="196" x="657" y="152.1"/><text fill="#000000" font-family="sans-serif" font-size="14" lengthAdjust="spacing" textLength="176" x="667" y="175.0951">Move Corresponding SAR</text></g><!--entity CountPixels--><g id="elem_CountPixels"><rect fill="#F1F1F1" height="36.2969" rx="2.5" ry="2.5" style="stroke:#000000;stroke-width:2.0;" width="105" x="837.5" y="81.3"/><text fill="#000000" font-family="sans-serif" font-size="14" lengthAdjust="spacing" textLength="85" x="847.5" y="104.2951">Count Pixels</text></g><!--entity OrigImages--><g id="elem_OrigImages"><path d="M980.5,16 C980.5,6 1043,6 1043,6 C1043,6 1105.5,6 1105.5,16 L1105.5,41.2969 C1105.5,51.2969 1043,51.2969 1043,51.2969 C1043,51.2969 980.5,51.2969 980.5,41.2969 L980.5,16 " fill="#F1F1F1" style="stroke:#181818;stroke-width:0.5;"/><path d="M980.5,16 C980.5,26 1043,26 1043,26 C1043,26 1105.5,26 1105.5,16 " fill="none" style="stroke:#181818;stroke-width:0.5;"/><text fill="#000000" font-family="sans-serif" font-size="14" lengthAdjust="spacing" textLength="105" x="990.5" y="42.9951">Original Images</text></g><!--entity FilteredImages--><g id="elem_FilteredImages"><path d="M460.5,279.89 C460.5,269.89 523,269.89 523,269.89 C523,269.89 585.5,269.89 585.5,279.89 L585.5,305.1869 C585.5,315.1869 523,315.1869 523,315.1869 C523,315.1869 460.5,315.1869 460.5,305.1869 L460.5,279.89 " fill="#F1F1F1" style="stroke:#181818;stroke-width:0.5;"/><path d="M460.5,279.89 C460.5,289.89 523,289.89 523,289.89 C523,289.89 585.5,289.89 585.5,279.89 " fill="none" style="stroke:#181818;stroke-width:0.5;"/><text fill="#000000" font-family="sans-serif" font-size="14" lengthAdjust="spacing" textLength="105" x="470.5" y="306.8851">Filtered Images</text></g><!--entity ImageCounts--><g id="elem_ImageCounts"><path d="M906,157.6 C906,147.6 964,147.6 964,147.6 C964,147.6 1022,147.6 1022,157.6 L1022,182.8969 C1022,192.8969 964,192.8969 964,192.8969 C964,192.8969 906,192.8969 906,182.8969 L906,157.6 " fill="#F1F1F1" style="stroke:#181818;stroke-width:0.5;"/><path d="M906,157.6 C906,167.6 964,167.6 964,167.6 C964,167.6 1022,167.6 1022,157.6 " fill="none" style="stroke:#181818;stroke-width:0.5;"/><text fill="#000000" font-family="sans-serif" font-size="14" lengthAdjust="spacing" textLength="96" x="916" y="184.5951">Image Counts</text></g><!--link User to InitiateFilter--><g id="link_User_InitiateFilter"><path d="M349.66,42.41 C292.09,67.45 169.7123,120.6673 104.0823,149.2073 " fill="none" id="User-to-InitiateFilter" style="stroke:#181818;stroke-width:1.0;"/><polygon fill="#181818" points="98.58,151.6,108.4285,151.6791,103.1652,149.6061,105.2382,144.3427,98.58,151.6" style="stroke:#181818;stroke-width:1.0;"/><text fill="#000000" font-family="sans-serif" font-size="13" lengthAdjust="spacing" textLength="86" x="258" y="104.0169">Start Filtering</text></g><!--link InitiateFilter to MakeDirs--><g id="link_InitiateFilter_MakeDirs"><path d="M109.4,170.24 C150.98,170.24 204.67,170.24 255.03,170.24 " fill="none" id="InitiateFilter-to-MakeDirs" style="stroke:#181818;stroke-width:1.0;"/><polygon fill="#181818" points="261.03,170.24,252.03,166.24,256.03,170.24,252.03,174.24,261.03,170.24" style="stroke:#181818;stroke-width:1.0;"/><text fill="#000000" font-family="sans-serif" font-size="13" lengthAdjust="spacing" textLength="116" x="127.25" y="163.3069">Create Directories</text></g><!--link MakeDirs to FilteredImages--><g id="link_MakeDirs_FilteredImages"><path d="M359.74,188.68 C363.01,204.04 369.92,226.08 384,239.89 C404.58,260.09 427.9939,270.841 454.3039,278.411 " fill="none" id="MakeDirs-to-FilteredImages" style="stroke:#181818;stroke-width:1.0;"/><polygon fill="#181818" points="460.07,280.07,452.5269,273.7374,455.2649,278.6875,450.3149,281.4255,460.07,280.07" style="stroke:#181818;stroke-width:1.0;"/><text fill="#000000" font-family="sans-serif" font-size="13" lengthAdjust="spacing" textLength="111" x="385" y="235.9569">Setup Directories</text></g><!--link FileSystem to FilterDataset--><g id="link_FileSystem_FilterDataset"><path d="M700.45,28.65 C740.2,28.65 787.92,28.65 828.02,28.65 " fill="none" id="FileSystem-to-FilterDataset" style="stroke:#181818;stroke-width:1.0;"/><polygon fill="#181818" points="834.02,28.65,825.02,24.65,829.02,28.65,825.02,32.65,834.02,28.65" style="stroke:#181818;stroke-width:1.0;"/><text fill="#000000" font-family="sans-serif" font-size="13" lengthAdjust="spacing" textLength="98" x="718.25" y="21.7169">Provide Images</text></g><!--link FilterDataset to CountPixels--><g id="link_FilterDataset_CountPixels"><path d="M890,47.01 C890,57.36 890,64.46 890,74.85 " fill="none" id="FilterDataset-to-CountPixels" style="stroke:#181818;stroke-width:1.0;"/><polygon fill="#181818" points="890,80.85,894,71.85,890,75.85,886,71.85,890,80.85" style="stroke:#181818;stroke-width:1.0;"/></g><!--link CountPixels to ImageCounts--><g id="link_CountPixels_ImageCounts"><path d="M908.67,117.81 C918.26,126.72 925.6555,133.5948 935.8855,143.1048 " fill="none" id="CountPixels-to-ImageCounts" style="stroke:#181818;stroke-width:1.0;"/><polygon fill="#181818" points="940.28,147.19,936.4118,138.1326,936.6179,143.7857,930.9649,143.9919,940.28,147.19" style="stroke:#181818;stroke-width:1.0;"/></g><!--link ImageCounts to FilterDataset--><g id="link_ImageCounts_FilterDataset"><path d="M962.21,147.4 C959.91,128.81 954.7,101.91 943,81.3 C935.58,68.23 928.4118,60.2407 917.8818,51.1507 " fill="none" id="ImageCounts-to-FilterDataset" style="stroke:#181818;stroke-width:1.0;"/><polygon fill="#181818" points="913.34,47.23,917.5389,56.1389,917.1248,50.4973,922.7665,50.0832,913.34,47.23" style="stroke:#181818;stroke-width:1.0;"/><text fill="#000000" font-family="sans-serif" font-size="13" lengthAdjust="spacing" textLength="102" x="957" y="104.0169">Analysis Results</text></g><!--link FilterDataset to MoveSAR--><g id="link_FilterDataset_MoveSAR"><path d="M834.11,33.65 C801.5,39.19 762.8,52.01 742,81.3 C727.25,102.06 734.4236,127.144 743.1536,146.224 " fill="none" id="FilterDataset-to-MoveSAR" style="stroke:#181818;stroke-width:1.0;"/><polygon fill="#181818" points="745.65,151.68,745.5428,141.8317,743.5697,147.1333,738.2681,145.1602,745.65,151.68" style="stroke:#181818;stroke-width:1.0;"/><text fill="#000000" font-family="sans-serif" font-size="13" lengthAdjust="spacing" textLength="76" x="743" y="104.0169">Identify SAR</text></g><!--link MoveSAR to FilteredImages--><g id="link_MoveSAR_FilteredImages"><path d="M721.27,188.74 C680.04,210.11 615.5968,243.5286 570.7668,266.7686 " fill="none" id="MoveSAR-to-FilteredImages" style="stroke:#181818;stroke-width:1.0;"/><polygon fill="#181818" points="565.44,269.53,575.2711,268.9391,569.879,267.2288,571.5892,261.8367,565.44,269.53" style="stroke:#181818;stroke-width:1.0;"/><text fill="#000000" font-family="sans-serif" font-size="13" lengthAdjust="spacing" textLength="115" x="654" y="235.9569">Move SAR Images</text></g><!--reverse link User to FilteredImages--><g id="link_User_FilteredImages"><path d="M398.7533,51.4659 C418.2933,73.5759 447.75,109.08 470,147.6 C488.1,178.93 488.58,188.9 501,222.89 C506.63,238.29 512.26,255.91 516.41,269.44 " fill="none" id="User-backto-FilteredImages" style="stroke:#181818;stroke-width:1.0;"/><polygon fill="#181818" points="394.78,46.97,397.7427,56.3627,398.0911,50.7166,403.7372,51.065,394.78,46.97" style="stroke:#181818;stroke-width:1.0;"/><text fill="#000000" font-family="sans-serif" font-size="13" lengthAdjust="spacing" textLength="97" x="492" y="174.8069">Filtered Results</text></g><!--SRC=[bLGzZnen4EtzAqRRfA99UKKaZey8AIWdbYjI6djsiJ0siiq1YlBVCxPt7U-ThWW5mc_Uctdxnei_ANFXZfz1OiUlEkpn7kPQzUQC9e2WBtICVO7lsXwu1XyU6g6p3XoAm4slqJDVcXGGVZEWpxDr4jt2QX8SD1Ud2jqVbJWPz1w-iZznn18xPH3y1ONgbAXcSH6iyy2D1Ca3fufraxd2QasZbJN-FoSdbCgzirSZC_zsL05JPUwSlMNmEJL9HbTt2iLG6fIE2egSrFDVFP9Z3yrhkzeraz9QQMmVFk0v4TQR7ojeVxNxrRQ9VL-S5UIA-ltBiTaO6i43HZ6DRQ9on39KipC2Iqh9OqZa30r8pTtoqzWL9InLB5b7ZvDaiKhOnClMlY4ihAFmBzP8PNfevxjCfnBzhjaBIZJ0YxgZpYqJaCzftzKgureFP12QdqxrAeQxEVD-y1AnVAo8nNb57B4Fv0Ha0vcPW7mkNZfjRvwb_SsalPdPjtT9mnCqRU0k38CeW8Qzeyp8wp6GT0mmYXOEumhhZ5cfZxEcvjCi3DVBL5LTeJ9fik6eeulqfYIEoR0feUYgVKJL6eCuPatAes4reQYgv78UjC0nMLONfyzLsPlJUXzUUTYXfx-SZmO7uN2decGZuxlMFT9zOsFXy-JIJOsKQGI5CjFOnOT9otwgBjDewIy0]--></g></svg>