<?xml version="1.0" encoding="us-ascii" standalone="no"?><svg xmlns="http://www.w3.org/2000/svg" xmlns:xlink="http://www.w3.org/1999/xlink" contentStyleType="text/css" height="1522px" preserveAspectRatio="none" style="width:871px;height:1522px;background:#FFFFFF;" version="1.1" viewBox="0 0 871 1522" width="871px" zoomAndPan="magnify"><defs/><g><!--entity User--><g id="elem_User"><rect fill="#FFFFFF" height="32.2969" rx="2.5" ry="2.5" style="stroke:#000000;stroke-width:2.0;" width="54" x="386.5" y="11"/><rect fill="#FFFFFF" height="32.2969" rx="2.5" ry="2.5" style="stroke:#000000;stroke-width:2.0;" width="54" x="382.5" y="7"/><text fill="#000000" font-family="sans-serif" font-size="14" lengthAdjust="spacing" textLength="38" x="390.5" y="27.9951">USER</text></g><!--entity FileSystem--><g id="elem_FileSystem"><rect fill="#FFFFFF" height="32.2969" rx="2.5" ry="2.5" style="stroke:#000000;stroke-width:2.0;" width="104" x="361.5" y="407.48"/><rect fill="#FFFFFF" height="32.2969" rx="2.5" ry="2.5" style="stroke:#000000;stroke-width:2.0;" width="104" x="357.5" y="403.48"/><text fill="#000000" font-family="sans-serif" font-size="14" lengthAdjust="spacing" textLength="88" x="365.5" y="424.4751">FILE SYSTEM</text></g><!--entity SplitDataset--><g id="elem_SplitDataset"><rect fill="#F1F1F1" height="36.2969" rx="2.5" ry="2.5" style="stroke:#000000;stroke-width:2.0;" width="203" x="310" y="516.78"/><text fill="#000000" font-family="sans-serif" font-size="14" lengthAdjust="spacing" textLength="183" x="320" y="539.7751">Split and Organize Dataset</text></g><!--entity ExpandDataset--><g id="elem_ExpandDataset"><rect fill="#F1F1F1" height="36.2969" rx="2.5" ry="2.5" style="stroke:#000000;stroke-width:2.0;" width="262" x="468.5" y="705.38"/><text fill="#000000" font-family="sans-serif" font-size="14" lengthAdjust="spacing" textLength="242" x="478.5" y="728.3751">Expand Dataset by Splitting Images</text></g><!--entity FilterDataset--><g id="elem_FilterDataset"><rect fill="#F1F1F1" height="36.2969" rx="2.5" ry="2.5" style="stroke:#000000;stroke-width:2.0;" width="213" x="134" y="1120.56"/><text fill="#000000" font-family="sans-serif" font-size="14" lengthAdjust="spacing" textLength="193" x="144" y="1143.5551">Filter Dataset by Thresholds</text></g><!--entity DisplayFilterDetails--><g id="elem_DisplayFilterDetails"><rect fill="#F1F1F1" height="36.2969" rx="2.5" ry="2.5" style="stroke:#000000;stroke-width:2.0;" width="221" x="7" y="73.3"/><text fill="#000000" font-family="sans-serif" font-size="14" lengthAdjust="spacing" textLength="201" x="17" y="96.2951">Display Filtered Image Details</text></g><!--entity AnalyzeDistribution--><g id="elem_AnalyzeDistribution"><rect fill="#F1F1F1" height="36.2969" rx="2.5" ry="2.5" style="stroke:#000000;stroke-width:2.0;" width="192" x="633.5" y="1464.95"/><text fill="#000000" font-family="sans-serif" font-size="14" lengthAdjust="spacing" textLength="172" x="643.5" y="1487.9451">Analyze Data Distribution</text></g><!--entity ManageDirs--><g id="elem_ManageDirs"><rect fill="#F1F1F1" height="36.2969" rx="2.5" ry="2.5" style="stroke:#000000;stroke-width:2.0;" width="234" x="294.5" y="139.59"/><text fill="#000000" font-family="sans-serif" font-size="14" lengthAdjust="spacing" textLength="214" x="304.5" y="162.5851">Create and Manage Directories</text></g><!--entity ProcessImages--><g id="elem_ProcessImages"><rect fill="#F1F1F1" height="36.2969" rx="2.5" ry="2.5" style="stroke:#000000;stroke-width:2.0;" width="228" x="243.5" y="771.67"/><text fill="#000000" font-family="sans-serif" font-size="14" lengthAdjust="spacing" textLength="208" x="253.5" y="794.6651">Process Images for Quadrants</text></g><!--entity SaveImages--><g id="elem_SaveImages"><rect fill="#F1F1F1" height="36.2969" rx="2.5" ry="2.5" style="stroke:#000000;stroke-width:2.0;" width="185" x="265" y="884.97"/><text fill="#000000" font-family="sans-serif" font-size="14" lengthAdjust="spacing" textLength="165" x="275" y="907.9651">Save Processed Images</text></g><!--entity CopySAR--><g id="elem_CopySAR"><rect fill="#F1F1F1" height="36.2969" rx="2.5" ry="2.5" style="stroke:#000000;stroke-width:2.0;" width="196" x="371.5" y="1347.16"/><text fill="#000000" font-family="sans-serif" font-size="14" lengthAdjust="spacing" textLength="176" x="381.5" y="1370.1551">Copy Filtered SAR Images</text></g><!--entity InitiateFilter--><g id="elem_InitiateFilter"><rect fill="#F1F1F1" height="36.2969" rx="2.5" ry="2.5" style="stroke:#000000;stroke-width:2.0;" width="183" x="524" y="1120.56"/><text fill="#000000" font-family="sans-serif" font-size="14" lengthAdjust="spacing" textLength="163" x="534" y="1143.5551">Initiate Filtering Process</text></g><!--entity FilterByPercentage--><g id="elem_FilterByPercentage"><rect fill="#F1F1F1" height="36.2969" rx="2.5" ry="2.5" style="stroke:#000000;stroke-width:2.0;" width="252" x="386.5" y="1233.86"/><text fill="#000000" font-family="sans-serif" font-size="14" lengthAdjust="spacing" textLength="232" x="396.5" y="1256.8551">Filter Images by Class Percentage</text></g><!--entity OrigImageData--><g id="elem_OrigImageData"><path d="M335,640.08 C335,630.08 411.5,630.08 411.5,630.08 C411.5,630.08 488,630.08 488,640.08 L488,665.3769 C488,675.3769 411.5,675.3769 411.5,675.3769 C411.5,675.3769 335,675.3769 335,665.3769 L335,640.08 " fill="#F1F1F1" style="stroke:#181818;stroke-width:0.5;"/><path d="M335,640.08 C335,650.08 411.5,650.08 411.5,650.08 C411.5,650.08 488,650.08 488,640.08 " fill="none" style="stroke:#181818;stroke-width:0.5;"/><text fill="#000000" font-family="sans-serif" font-size="14" lengthAdjust="spacing" textLength="133" x="345" y="667.0751">Original Image Data</text></g><!--entity SplitImageData--><g id="elem_SplitImageData"><path d="M292,1008.27 C292,998.27 357.5,998.27 357.5,998.27 C357.5,998.27 423,998.27 423,1008.27 L423,1033.5669 C423,1043.5669 357.5,1043.5669 357.5,1043.5669 C357.5,1043.5669 292,1043.5669 292,1033.5669 L292,1008.27 " fill="#F1F1F1" style="stroke:#181818;stroke-width:0.5;"/><path d="M292,1008.27 C292,1018.27 357.5,1018.27 357.5,1018.27 C357.5,1018.27 423,1018.27 423,1008.27 " fill="none" style="stroke:#181818;stroke-width:0.5;"/><text fill="#000000" font-family="sans-serif" font-size="14" lengthAdjust="spacing" textLength="111" x="302" y="1035.2651">Split Image Data</text></g><!--entity FilteredImageData--><g id="elem_FilteredImageData"><path d="M235,1470.45 C235,1460.45 311.5,1460.45 311.5,1460.45 C311.5,1460.45 388,1460.45 388,1470.45 L388,1495.7469 C388,1505.7469 311.5,1505.7469 311.5,1505.7469 C311.5,1505.7469 235,1505.7469 235,1495.7469 L235,1470.45 " fill="#F1F1F1" style="stroke:#181818;stroke-width:0.5;"/><path d="M235,1470.45 C235,1480.45 311.5,1480.45 311.5,1480.45 C311.5,1480.45 388,1480.45 388,1470.45 " fill="none" style="stroke:#181818;stroke-width:0.5;"/><text fill="#000000" font-family="sans-serif" font-size="14" lengthAdjust="spacing" textLength="133" x="245" y="1497.4451">Filtered Image Data</text></g><!--entity ResultsData--><g id="elem_ResultsData"><path d="M670.5,215.89 C670.5,205.89 724.5,205.89 724.5,205.89 C724.5,205.89 778.5,205.89 778.5,215.89 L778.5,241.1869 C778.5,251.1869 724.5,251.1869 724.5,251.1869 C724.5,251.1869 670.5,251.1869 670.5,241.1869 L670.5,215.89 " fill="#F1F1F1" style="stroke:#181818;stroke-width:0.5;"/><path d="M670.5,215.89 C670.5,225.89 724.5,225.89 724.5,225.89 C724.5,225.89 778.5,225.89 778.5,215.89 " fill="none" style="stroke:#181818;stroke-width:0.5;"/><text fill="#000000" font-family="sans-serif" font-size="14" lengthAdjust="spacing" textLength="88" x="680.5" y="242.8851">Results Data</text></g><!--entity DirectoryData--><g id="elem_DirectoryData"><path d="M352.5,291.19 C352.5,281.19 411.5,281.19 411.5,281.19 C411.5,281.19 470.5,281.19 470.5,291.19 L470.5,316.4869 C470.5,326.4869 411.5,326.4869 411.5,326.4869 C411.5,326.4869 352.5,326.4869 352.5,316.4869 L352.5,291.19 " fill="#F1F1F1" style="stroke:#181818;stroke-width:0.5;"/><path d="M352.5,291.19 C352.5,301.19 411.5,301.19 411.5,301.19 C411.5,301.19 470.5,301.19 470.5,291.19 " fill="none" style="stroke:#181818;stroke-width:0.5;"/><text fill="#000000" font-family="sans-serif" font-size="14" lengthAdjust="spacing" textLength="98" x="362.5" y="318.1851">Directory Data</text></g><!--link FileSystem to SplitDataset--><g id="link_FileSystem_SplitDataset"><path d="M411.5,440.02 C411.5,460.81 411.5,489.4 411.5,510.29 " fill="none" id="FileSystem-to-SplitDataset" style="stroke:#181818;stroke-width:1.0;"/><polygon fill="#181818" points="411.5,516.29,415.5,507.29,411.5,511.29,407.5,507.29,411.5,516.29" style="stroke:#181818;stroke-width:1.0;"/><text fill="#000000" font-family="sans-serif" font-size="13" lengthAdjust="spacing" textLength="60" x="412.5" y="482.8469">Raw Data</text></g><!--link SplitDataset to OrigImageData--><g id="link_SplitDataset_OrigImageData"><path d="M411.5,553.52 C411.5,573.89 411.5,601.48 411.5,623.61 " fill="none" id="SplitDataset-to-OrigImageData" style="stroke:#181818;stroke-width:1.0;"/><polygon fill="#181818" points="411.5,629.61,415.5,620.61,411.5,624.61,407.5,620.61,411.5,629.61" style="stroke:#181818;stroke-width:1.0;"/><text fill="#000000" font-family="sans-serif" font-size="13" lengthAdjust="spacing" textLength="100" x="412.5" y="596.1469">Organized Data</text></g><!--link OrigImageData to ExpandDataset--><g id="link_OrigImageData_ExpandDataset"><path d="M472.02,675.87 C497.67,685.26 521.5259,693.9868 545.6659,702.8268 " fill="none" id="OrigImageData-to-ExpandDataset" style="stroke:#181818;stroke-width:1.0;"/><polygon fill="#181818" points="551.3,704.89,544.2243,698.0391,546.6049,703.1707,541.4734,705.5513,551.3,704.89" style="stroke:#181818;stroke-width:1.0;"/></g><!--link ExpandDataset to SplitImageData--><g id="link_ExpandDataset_SplitImageData"><path d="M596.87,742.09 C589.28,786.53 563.3,904.42 493.5,968.27 C473.93,986.16 453.2522,996.234 428.9222,1004.054 " fill="none" id="ExpandDataset-to-SplitImageData" style="stroke:#181818;stroke-width:1.0;"/><polygon fill="#181818" points="423.21,1005.89,433.0023,1006.9442,427.9702,1004.36,430.5543,999.3279,423.21,1005.89" style="stroke:#181818;stroke-width:1.0;"/><text fill="#000000" font-family="sans-serif" font-size="13" lengthAdjust="spacing" textLength="114" x="573.5" y="851.0369">Expanded Images</text></g><!--link SplitImageData to FilterDataset--><g id="link_SplitImageData_FilterDataset"><path d="M335.22,1043.97 C312.81,1066.15 282.9754,1095.6802 262.3854,1116.0502 " fill="none" id="SplitImageData-to-FilterDataset" style="stroke:#181818;stroke-width:1.0;"/><polygon fill="#181818" points="258.12,1120.27,267.3312,1116.7839,261.6745,1116.7535,261.7049,1111.0967,258.12,1120.27" style="stroke:#181818;stroke-width:1.0;"/><text fill="#000000" font-family="sans-serif" font-size="13" lengthAdjust="spacing" textLength="154" x="304.5" y="1086.6269">Split Images for Filtering</text></g><!--link FilterDataset to FilteredImageData--><g id="link_FilterDataset_FilteredImageData"><path d="M244.12,1157.16 C256.02,1214.53 292.692,1391.3749 305.782,1454.5149 " fill="none" id="FilterDataset-to-FilteredImageData" style="stroke:#181818;stroke-width:1.0;"/><polygon fill="#181818" points="307,1460.39,309.0897,1450.7654,305.985,1455.4941,301.2563,1452.3894,307,1460.39" style="stroke:#181818;stroke-width:1.0;"/><text fill="#000000" font-family="sans-serif" font-size="13" lengthAdjust="spacing" textLength="123" x="278.5" y="1313.2269">Filtered Image Files</text></g><!--link FilteredImageData to AnalyzeDistribution--><g id="link_FilteredImageData_AnalyzeDistribution"><path d="M388.17,1483.1 C457.11,1483.1 552.68,1483.1 627.1,1483.1 " fill="none" id="FilteredImageData-to-AnalyzeDistribution" style="stroke:#181818;stroke-width:1.0;"/><polygon fill="#181818" points="633.1,1483.1,624.1,1479.1,628.1,1483.1,624.1,1487.1,633.1,1483.1" style="stroke:#181818;stroke-width:1.0;"/><text fill="#000000" font-family="sans-serif" font-size="13" lengthAdjust="spacing" textLength="108" x="456.75" y="1476.1669">Data for Analysis</text></g><!--reverse link ResultsData to AnalyzeDistribution--><g id="link_ResultsData_AnalyzeDistribution"><path d="M736.4097,256.9782 C747.0697,283.1982 760.5,323.15 760.5,363.98 C760.5,363.98 760.5,363.98 760.5,1366.3 C760.5,1402.31 746.34,1442.53 737.16,1464.83 " fill="none" id="ResultsData-backto-AnalyzeDistribution" style="stroke:#181818;stroke-width:1.0;"/><polygon fill="#181818" points="734.15,251.42,733.8341,261.2638,736.0331,256.0518,741.2451,258.2508,734.15,251.42" style="stroke:#181818;stroke-width:1.0;"/><text fill="#000000" font-family="sans-serif" font-size="13" lengthAdjust="spacing" textLength="102" x="761.5" y="851.0369">Analysis Results</text></g><!--reverse link User to ResultsData--><g id="link_User_ResultsData"><path d="M446.9026,30.6171 C481.6226,35.8671 534.15,47.13 577.5,73.3 C635.45,108.28 685.67,172.07 709.6,205.6 " fill="none" id="User-backto-ResultsData" style="stroke:#181818;stroke-width:1.0;"/><polygon fill="#181818" points="440.97,29.72,449.2708,35.0206,445.9138,30.4676,450.4669,27.1106,440.97,29.72" style="stroke:#181818;stroke-width:1.0;"/><text fill="#000000" font-family="sans-serif" font-size="13" lengthAdjust="spacing" textLength="152" x="625.5" y="96.0169">Display Analysis Results</text></g><!--link User to ManageDirs--><g id="link_User_ManageDirs"><path d="M411.5,43.76 C411.5,68.83 411.5,108.5 411.5,133.41 " fill="none" id="User-to-ManageDirs" style="stroke:#181818;stroke-width:1.0;"/><polygon fill="#181818" points="411.5,139.41,415.5,130.41,411.5,134.41,407.5,130.41,411.5,139.41" style="stroke:#181818;stroke-width:1.0;"/><text fill="#000000" font-family="sans-serif" font-size="13" lengthAdjust="spacing" textLength="156" x="412.5" y="96.0169">Request Directory Setup</text></g><!--link ManageDirs to DirectoryData--><g id="link_ManageDirs_DirectoryData"><path d="M411.5,176.12 C411.5,202.47 411.5,246.48 411.5,275.17 " fill="none" id="ManageDirs-to-DirectoryData" style="stroke:#181818;stroke-width:1.0;"/><polygon fill="#181818" points="411.5,281.17,415.5,272.17,411.5,276.17,407.5,272.17,411.5,281.17" style="stroke:#181818;stroke-width:1.0;"/><text fill="#000000" font-family="sans-serif" font-size="13" lengthAdjust="spacing" textLength="180" x="412.5" y="233.1069">Directory Structure Updates</text></g><!--link DirectoryData to FileSystem--><g id="link_DirectoryData_FileSystem"><path d="M411.5,326.89 C411.5,349.07 411.5,376.82 411.5,397.2 " fill="none" id="DirectoryData-to-FileSystem" style="stroke:#181818;stroke-width:1.0;"/><polygon fill="#181818" points="411.5,403.2,415.5,394.2,411.5,398.2,407.5,394.2,411.5,403.2" style="stroke:#181818;stroke-width:1.0;"/><text fill="#000000" font-family="sans-serif" font-size="13" lengthAdjust="spacing" textLength="133" x="412.5" y="369.5469">Updated File System</text></g><!--link OrigImageData to ProcessImages--><g id="link_OrigImageData_ProcessImages"><path d="M360.06,675.71 C348.27,683.31 337.24,693.09 330.5,705.38 C318.79,726.74 328.9055,749.0153 340.6655,766.4553 " fill="none" id="OrigImageData-to-ProcessImages" style="stroke:#181818;stroke-width:1.0;"/><polygon fill="#181818" points="344.02,771.43,342.3047,761.7317,341.2246,767.2844,335.6718,766.2043,344.02,771.43" style="stroke:#181818;stroke-width:1.0;"/><text fill="#000000" font-family="sans-serif" font-size="13" lengthAdjust="spacing" textLength="118" x="331.5" y="728.0869">Images to Process</text></g><!--link ProcessImages to SaveImages--><g id="link_ProcessImages_SaveImages"><path d="M357.5,808.21 C357.5,829 357.5,857.59 357.5,878.48 " fill="none" id="ProcessImages-to-SaveImages" style="stroke:#181818;stroke-width:1.0;"/><polygon fill="#181818" points="357.5,884.48,361.5,875.48,357.5,879.48,353.5,875.48,357.5,884.48" style="stroke:#181818;stroke-width:1.0;"/><text fill="#000000" font-family="sans-serif" font-size="13" lengthAdjust="spacing" textLength="181" x="358.5" y="851.0369">Processed Quadrant Images</text></g><!--link SaveImages to SplitImageData--><g id="link_SaveImages_SplitImageData"><path d="M357.5,921.7 C357.5,942.08 357.5,969.67 357.5,991.79 " fill="none" id="SaveImages-to-SplitImageData" style="stroke:#181818;stroke-width:1.0;"/><polygon fill="#181818" points="357.5,997.79,361.5,988.79,357.5,992.79,353.5,988.79,357.5,997.79" style="stroke:#181818;stroke-width:1.0;"/><text fill="#000000" font-family="sans-serif" font-size="13" lengthAdjust="spacing" textLength="126" x="358.5" y="964.3369">Stored Split Images</text></g><!--link FilterDataset to InitiateFilter--><g id="link_FilterDataset_InitiateFilter"><path d="M347.46,1138.71 C403.09,1138.71 464.41,1138.71 517.67,1138.71 " fill="none" id="FilterDataset-to-InitiateFilter" style="stroke:#181818;stroke-width:1.0;"/><polygon fill="#181818" points="523.67,1138.71,514.67,1134.71,518.67,1138.71,514.67,1142.71,523.67,1138.71" style="stroke:#181818;stroke-width:1.0;"/><text fill="#000000" font-family="sans-serif" font-size="13" lengthAdjust="spacing" textLength="140" x="365.5" y="1131.7769">Start Filtering Process</text></g><!--link InitiateFilter to FilterByPercentage--><g id="link_InitiateFilter_FilterByPercentage"><path d="M599.41,1157.1 C580.17,1177.89 552.2362,1208.0772 532.8962,1228.9672 " fill="none" id="InitiateFilter-to-FilterByPercentage" style="stroke:#181818;stroke-width:1.0;"/><polygon fill="#181818" points="528.82,1233.37,537.8695,1229.4832,532.2168,1229.701,531.999,1224.0483,528.82,1233.37" style="stroke:#181818;stroke-width:1.0;"/><text fill="#000000" font-family="sans-serif" font-size="13" lengthAdjust="spacing" textLength="108" x="571.5" y="1199.9269">Apply Thresholds</text></g><!--link FilterByPercentage to CopySAR--><g id="link_FilterByPercentage_CopySAR"><path d="M505.78,1270.4 C497.75,1291.18 486.5536,1320.1737 478.4736,1341.0737 " fill="none" id="FilterByPercentage-to-CopySAR" style="stroke:#181818;stroke-width:1.0;"/><polygon fill="#181818" points="476.31,1346.67,483.2862,1339.7179,478.113,1342.0064,475.8244,1336.8331,476.31,1346.67" style="stroke:#181818;stroke-width:1.0;"/><text fill="#000000" font-family="sans-serif" font-size="13" lengthAdjust="spacing" textLength="139" x="495.5" y="1313.2269">Matching SAR Images</text></g><!--link CopySAR to FilteredImageData--><g id="link_CopySAR_FilteredImageData"><path d="M445.5,1383.89 C417.71,1404.26 376.7099,1434.3138 346.5199,1456.4338 " fill="none" id="CopySAR-to-FilteredImageData" style="stroke:#181818;stroke-width:1.0;"/><polygon fill="#181818" points="341.68,1459.98,351.304,1457.8874,345.7133,1457.0249,346.5758,1451.4341,341.68,1459.98" style="stroke:#181818;stroke-width:1.0;"/><text fill="#000000" font-family="sans-serif" font-size="13" lengthAdjust="spacing" textLength="125" x="406.5" y="1426.5169">Copied SAR Images</text></g><!--reverse link DisplayFilterDetails to FilteredImageData--><g id="link_DisplayFilterDetails_FilteredImageData"><path d="M107.3795,115.5073 C96.7895,140.8873 81.5,184.09 81.5,227.54 C81.5,227.54 81.5,227.54 81.5,1366.3 C81.5,1436.38 167.73,1464.06 234.59,1474.98 " fill="none" id="DisplayFilterDetails-backto-FilteredImageData" style="stroke:#181818;stroke-width:1.0;"/><polygon fill="#181818" points="109.69,109.97,102.5327,116.7356,107.7646,114.5844,109.9158,119.8163,109.69,109.97" style="stroke:#181818;stroke-width:1.0;"/><text fill="#000000" font-family="sans-serif" font-size="13" lengthAdjust="spacing" textLength="125" x="82.5" y="794.3869">Filtered Images Info</text></g><!--reverse link User to DisplayFilterDetails--><g id="link_User_DisplayFilterDetails"><path d="M376.3786,33.8322 C333.8186,43.1422 259.13,59.47 198.01,72.84 " fill="none" id="User-backto-DisplayFilterDetails" style="stroke:#181818;stroke-width:1.0;"/><polygon fill="#181818" points="382.24,32.55,372.5931,30.5657,377.3555,33.6185,374.3027,38.3809,382.24,32.55" style="stroke:#181818;stroke-width:1.0;"/></g><!--SRC=[bLLDRzim3BthLmY-x9JBZZqCIDDqAB2YNPqUTbHiEH6gI9uaBys6_VUH-h0bnnkm7egMV8-ao4VQlWdLCyDEjEKT6wJRyNUtbkAWJbmvsi0lRWZvG3zBlMUIMdUHd7RQKCCRnzH1Sali66Gqqb-4mi-jDYqt6os1i9UiUSkikwDetXItbdualp757U-4ujJsl16TQB9Sh77QMCfKIrlc67YqAV8sMaf8BRIo_vdPMy5zC7fGRS2VZy9nxraRey_1UEk3-4Atxz0K1Ts0xWWde98y_wlbKB6brMkzVQaArxsGlBvOnqyUSF_mPKlhR_Lk-rXXt6UZ6wWAuarzhEfU2kUV_cGEJ8cVdDv13ont5GRnxcZ8QTlt7ZdHG_UNW7H27UZ3YHsuzVG0M-13gV38dByxGi-FMhQ16G0Bp3jXUyak4S3Ra0wcwvYGWHiXCKHmv27MqDnBV2Y2dH7x0LlesT6RstFond3ckE_O8rC-jK2tDY8-EfZ1MYIDtO_TyRhxEh3MCEK2BGA2lnWH-y77uRLvUz5pZT_eFcjFlNx9AUW4Kuv_KA0oV5FWu0XZDiz8xk1T669y4Snm8ncyy9aRN6mmPfEylKnclutPek7IxM7Ej7eouY1G-d6euF0nqEvDQCdmGRqpi3SkeUUIIOHaN-AyS0jdoqxWQ9Z1aWOk4t0qUMXwSYVrsP9iKrUjFglLfsBJw0qaPkSGYnIU12ywWlYqlcrabO0L_7Tqm2isCl2AbcDbjY8bhAYno1fmaoh939AOnJeZCPjSM8PHV1KfmMM8R4eOPZRIMFqrT7p_mdPZd30RACFxhO0WIyZLq4ECJ0B8JPHahqWE21H_jM-cwtND8HwI7ZlT4Ay5_dtWrasIeZLtGr-H39QOXUn2of7apD2umN3wseDqiLCbEcjraYS42E3MMsamGxapVKLcSSIG7FzoUhmffCICsXfl6TAcSvUEvAIm2VXtNTPuMLgQgmngdWahQQAyS87EZ5kuXsG6BRMPtpWlZBwNnOUDBE1IY7YOaVV8N7F4jDdj9id_ptK0a2Xl_j8kIDuvhvJhp-JrJk47eDEeb0Lq2fNaFL9JZptt3m00]--></g></svg>